<svg xmlns="http://www.w3.org/2000/svg" viewBox="0 0 112.3 90.31"><defs><style>.cls-1{fill:#4b4b4b;}</style></defs><g id="DESIGNED_BY_FREEPIK" data-name="DESIGNED BY FREEPIK"><path class="cls-1" d="M107.23,40.09h-88L57.35,9a5.07,5.07,0,0,0-6.41-7.85L1.84,41.23a5.41,5.41,0,0,0-.78.81c0,.05-.07.11-.11.17a4.7,4.7,0,0,0-.6,1.1s-.06.09-.08.15,0,0,0,.08A5.13,5.13,0,0,0,0,44.88v.29a5,5,0,0,0,.16,1.27.34.34,0,0,0,0,.1,5,5,0,0,0,.56,1.22l.18.29c.08.1.13.21.21.31a4.69,4.69,0,0,0,.6.58,1.49,1.49,0,0,0,.12.14l.11.09H2l49,40a5.07,5.07,0,1,0,6.41-7.85L19.26,50.22h88a5.07,5.07,0,1,0,0-10.13Z"/></g></svg>