<svg xmlns="http://www.w3.org/2000/svg" xmlns:xlink="http://www.w3.org/1999/xlink" viewBox="0 0 488.83 418.25"><defs><style>.cls-1,.cls-26,.cls-27,.cls-28,.cls-29,.cls-36,.cls-37,.cls-38,.cls-39,.cls-7{isolation:isolate;}.cls-2{fill:#076d6d;}.cls-2,.cls-40{opacity:0.5;}.cls-3{fill:#bcbcbc;}.cls-4{fill:#d3d3d3;}.cls-5{fill:#0b4656;}.cls-6{fill:#063444;}.cls-7{fill:#985eff;}.cls-29,.cls-8{fill:#dbb2ff;}.cls-9{fill:#f2e7fe;}.cls-10{fill:#dbdbdb;}.cls-11{fill:#ededed;}.cls-12{fill:#81c5e8;}.cls-13,.cls-17,.cls-18,.cls-35{fill:#fff;}.cls-14{fill:#394356;}.cls-15{fill:#485366;}.cls-16{fill:#6a7384;}.cls-17{opacity:0.2;}.cls-18{opacity:0.4;}.cls-19{fill:#ffdc79;}.cls-20{fill:#ffe6a6;}.cls-21{fill:#252343;}.cls-22{fill:#666490;}.cls-23{fill:#fe5c99;}.cls-24{fill:#e5e5e5;}.cls-25{fill:#e83d83;}.cls-26{fill:#5600e8;}.cls-27{fill:#7f39fb;}.cls-28{fill:#bb86fc;}.cls-30{fill:#48d7e5;}.cls-31{fill:#e0f9fe;}.cls-32{fill:#011a5f;}.cls-33{fill:#c5eaef;}.cls-34{fill:#c9d4fe;opacity:0.3;}.cls-35,.cls-46{opacity:0.1;}.cls-36{fill:#3700b3;}.cls-37{fill:#6200ee;}.cls-38{fill:#23036a;}.cls-39{fill:#30009c;}.cls-40{fill:#2d605d;mix-blend-mode:hard-light;}.cls-41{fill:#b2cfd1;}.cls-42{fill:#edf4f4;}.cls-43{fill:#ebf6f7;}.cls-44{fill:#d1e4e5;}.cls-45{fill:#b7e3e5;}.cls-46{fill:url(#linear-gradient);}</style><linearGradient id="linear-gradient" x1="392.79" y1="338.06" x2="440.38" y2="344.74" gradientTransform="matrix(-1, 0, 0, 1, 533.76, 0)" gradientUnits="userSpaceOnUse"><stop offset="0" stop-color="#076d6d"/><stop offset="1" stop-color="#076d6d" stop-opacity="0"/></linearGradient></defs><g class="cls-1"><g id="OBJECTS"><path class="cls-2" d="M355.68,341.43,433.11,389a.8.8,0,0,1,0,1.36l-1.82,1.1a3.09,3.09,0,0,1-3.21,0l-76.76-47.11a.87.87,0,0,1,0-1.48l2.29-1.38A2,2,0,0,1,355.68,341.43Z" transform="translate(-6.95 -40.38)"/><path class="cls-3" d="M388.32,226v.35l13.52,8.13v-.35a4,4,0,0,0-1.87-3l-.9-.54c-1.34-.81-2.3-2.67-1.94-3.74h0a2.13,2.13,0,0,0,.06-.45,4.51,4.51,0,0,0-2.05-3.35,1.6,1.6,0,0,0-1.13-.29c-1.06.19-1.15.87-1,1.63h0c.37,1.5-.6,2.2-1.94,1.4l-.9-.54C389.15,224.66,388.32,225,388.32,226Zm5.66-1.53c0-.61.49-.81,1.1-.44a2.35,2.35,0,0,1,1.1,1.76c0,.61-.49.81-1.1.44A2.36,2.36,0,0,1,394,224.49Z" transform="translate(-6.95 -40.38)"/><path class="cls-4" d="M378.63,225.16l32.9,19.77v-.84c0-2.51-2-5.76-4.54-7.27l-23.82-14.31c-2.51-1.51-4.54-.7-4.54,1.81Z" transform="translate(-6.95 -40.38)"/><path class="cls-5" d="M356.29,213.22l2.78-1.13v0a1.72,1.72,0,0,1,1.57.12l74.27,45.65a4.3,4.3,0,0,1,2,3.66v120.9a2.06,2.06,0,0,1-1,1.8h0a2,2,0,0,1-.46.18l-2.49,1,.33-1.59-73.42-45.12a4,4,0,0,1-1.93-3.45Z" transform="translate(-6.95 -40.38)"/><path class="cls-6" d="M355.28,214.83V336.38a4.06,4.06,0,0,0,1.93,3.45l74,45.45a2.06,2.06,0,0,0,3.13-1.76V263a5,5,0,0,0-2.35-4.22l-74-45.45A1.77,1.77,0,0,0,355.28,214.83Z" transform="translate(-6.95 -40.38)"/><path class="cls-7" d="M358,217.89V335.7a1.5,1.5,0,0,0,.72,1.29l71.84,44.16a.69.69,0,0,0,1-.59V262.93a2.18,2.18,0,0,0-1-1.88L359.2,217.2A.8.8,0,0,0,358,217.89Z" transform="translate(-6.95 -40.38)"/><g class="cls-1"><path class="cls-8" d="M398.76,249v44a.55.55,0,0,0,.27.48l26.8,16.47a.26.26,0,0,0,.39-.22V265.78a.84.84,0,0,0-.39-.7l-26.61-16.35A.3.3,0,0,0,398.76,249Z" transform="translate(-6.95 -40.38)"/><path class="cls-8" d="M398.76,301.22v4.21a.55.55,0,0,0,.27.48l26.8,16.47a.25.25,0,0,0,.39-.22V318a.82.82,0,0,0-.39-.7L399.22,301A.31.31,0,0,0,398.76,301.22Z" transform="translate(-6.95 -40.38)"/><path class="cls-8" d="M401.57,287.36v3.35a.45.45,0,0,0,.21.38l21.32,13.1a.2.2,0,0,0,.31-.17v-3.3a.64.64,0,0,0-.31-.56l-21.17-13A.24.24,0,0,0,401.57,287.36Z" transform="translate(-6.95 -40.38)"/><path class="cls-8" d="M398.76,310v4.21a.55.55,0,0,0,.27.48l26.8,16.47a.26.26,0,0,0,.39-.22v-4.14a.82.82,0,0,0-.39-.7L399.22,309.7A.3.3,0,0,0,398.76,310Z" transform="translate(-6.95 -40.38)"/><path class="cls-8" d="M404.86,322.44v4.21a.55.55,0,0,0,.27.48l20.7,12.73a.26.26,0,0,0,.39-.22v-4.15a.84.84,0,0,0-.39-.7l-20.52-12.61A.3.3,0,0,0,404.86,322.44Z" transform="translate(-6.95 -40.38)"/><path class="cls-8" d="M369.52,295.78V300a.55.55,0,0,0,.27.48l20.7,12.73a.26.26,0,0,0,.39-.22v-4.15a.84.84,0,0,0-.39-.7L370,295.52A.3.3,0,0,0,369.52,295.78Z" transform="translate(-6.95 -40.38)"/><path class="cls-8" d="M369.52,308.19v4.21a.55.55,0,0,0,.27.48l20.7,12.73a.26.26,0,0,0,.39-.22v-4.14a.84.84,0,0,0-.39-.71L370,307.93A.3.3,0,0,0,369.52,308.19Z" transform="translate(-6.95 -40.38)"/><path class="cls-8" d="M398.76,327.43v4.22a.57.57,0,0,0,.27.48l26.8,16.47a.26.26,0,0,0,.39-.22v-4.15a.84.84,0,0,0-.39-.7l-26.61-16.35A.3.3,0,0,0,398.76,327.43Z" transform="translate(-6.95 -40.38)"/><path class="cls-8" d="M417.56,354v6.1a.82.82,0,0,0,.39.7l5.69,3.45a.36.36,0,0,0,.56-.32v-6a1.2,1.2,0,0,0-.56-1l-5.41-3.29A.45.45,0,0,0,417.56,354Z" transform="translate(-6.95 -40.38)"/><path class="cls-8" d="M408.16,348.25v6.11a.84.84,0,0,0,.39.7l5.68,3.45a.38.38,0,0,0,.57-.32v-6a1.21,1.21,0,0,0-.56-1l-5.41-3.28A.44.44,0,0,0,408.16,348.25Z" transform="translate(-6.95 -40.38)"/><path class="cls-8" d="M398.76,342.51v6.1a.82.82,0,0,0,.39.7l5.68,3.45a.37.37,0,0,0,.57-.32v-6a1.18,1.18,0,0,0-.57-1l-5.41-3.29A.44.44,0,0,0,398.76,342.51Z" transform="translate(-6.95 -40.38)"/><path class="cls-8" d="M374.22,234.29v1.6a.55.55,0,0,0,.27.48l17.94,11a.26.26,0,0,0,.4-.22v-1.53a.8.8,0,0,0-.4-.7L374.68,234A.3.3,0,0,0,374.22,234.29Z" transform="translate(-6.95 -40.38)"/><path class="cls-8" d="M380.81,243v1.6a.55.55,0,0,0,.27.48l11.35,7a.26.26,0,0,0,.4-.22v-1.53a.81.81,0,0,0-.4-.7l-11.16-6.91A.3.3,0,0,0,380.81,243Z" transform="translate(-6.95 -40.38)"/><path class="cls-8" d="M365.37,238.22v1.61a.56.56,0,0,0,.27.48l26.79,16.47a.27.27,0,0,0,.4-.22V255a.82.82,0,0,0-.4-.7L365.82,238A.29.29,0,0,0,365.37,238.22Z" transform="translate(-6.95 -40.38)"/><path class="cls-8" d="M367.75,244.33v1.61a.6.6,0,0,0,.27.48l24.41,15a.26.26,0,0,0,.4-.22v-1.53a.81.81,0,0,0-.4-.7l-24.22-14.93A.3.3,0,0,0,367.75,244.33Z" transform="translate(-6.95 -40.38)"/><path class="cls-8" d="M378.4,255.59v1.6a.6.6,0,0,0,.27.49l13.76,8.47a.27.27,0,0,0,.4-.22v-1.54a.81.81,0,0,0-.4-.7l-13.57-8.35A.3.3,0,0,0,378.4,255.59Z" transform="translate(-6.95 -40.38)"/><path class="cls-8" d="M365.37,252.28v1.6a.56.56,0,0,0,.27.48l26.79,16.47a.27.27,0,0,0,.4-.22v-1.54a.82.82,0,0,0-.4-.7L365.82,252A.3.3,0,0,0,365.37,252.28Z" transform="translate(-6.95 -40.38)"/><path class="cls-8" d="M365.37,257v1.6a.55.55,0,0,0,.27.48l26.79,16.47a.26.26,0,0,0,.4-.22v-1.53a.81.81,0,0,0-.4-.7L365.82,256.7A.3.3,0,0,0,365.37,257Z" transform="translate(-6.95 -40.38)"/><path class="cls-8" d="M371.8,265.62v1.6a.55.55,0,0,0,.27.48l20.36,12.5a.27.27,0,0,0,.4-.22v-1.54a.82.82,0,0,0-.4-.7l-20.18-12.38A.3.3,0,0,0,371.8,265.62Z" transform="translate(-6.95 -40.38)"/><path class="cls-8" d="M365.37,266.33v1.6a.56.56,0,0,0,.27.48l26.79,16.47a.26.26,0,0,0,.4-.22v-1.53a.83.83,0,0,0-.4-.71l-26.61-16.35A.3.3,0,0,0,365.37,266.33Z" transform="translate(-6.95 -40.38)"/><path class="cls-8" d="M365.37,271v1.6a.55.55,0,0,0,.27.48l26.79,16.47a.26.26,0,0,0,.4-.22v-1.53a.81.81,0,0,0-.4-.7l-26.61-16.36A.3.3,0,0,0,365.37,271Z" transform="translate(-6.95 -40.38)"/><g class="cls-1"><path class="cls-9" d="M408,268.29c0,2.49,2,7.59,4.51,9.15s4.51-1,4.51-3.51-2-5.78-4.51-7.33S408,265.8,408,268.29Z" transform="translate(-6.95 -40.38)"/><path class="cls-9" d="M401.57,282.25V283l21.84,13.65v-.74c0-6-4.89-14-10.92-17.74-3-1.89-5.75-2.37-7.72-1.63S401.57,279.24,401.57,282.25Z" transform="translate(-6.95 -40.38)"/></g><path class="cls-8" d="M376.38,226.24,409.28,246v-.84c0-2.51-2-5.76-4.54-7.27l-23.82-14.31c-2.51-1.51-4.54-.7-4.54,1.81Z" transform="translate(-6.95 -40.38)"/><path class="cls-8" d="M386.06,227.1v.35l13.53,8.13v-.35a4,4,0,0,0-1.87-3l-.9-.54c-1.34-.81-2.31-2.67-1.94-3.74h0a2,2,0,0,0,.06-.45,4.51,4.51,0,0,0-2.05-3.35,1.61,1.61,0,0,0-1.13-.29c-1.06.19-1.15.87-1,1.63h0c.37,1.5-.6,2.2-1.94,1.4l-.9-.54C386.9,225.74,386.06,226.07,386.06,227.1Zm5.66-1.53c0-.61.5-.81,1.11-.44a2.35,2.35,0,0,1,1.1,1.76c0,.61-.49.81-1.1.44A2.38,2.38,0,0,1,391.72,225.57Z" transform="translate(-6.95 -40.38)"/><path class="cls-8" d="M365.37,247.53v1.6a.55.55,0,0,0,.27.48l11,6.84a.26.26,0,0,0,.39-.22v-1.54a.81.81,0,0,0-.39-.7l-10.82-6.72A.3.3,0,0,0,365.37,247.53Z" transform="translate(-6.95 -40.38)"/></g><path class="cls-2" d="M46.07,284.86a1.91,1.91,0,0,0,2,0l30.53-18.77a2.66,2.66,0,0,0,.61-.39,3.55,3.55,0,0,0,1.17-1.61,5.08,5.08,0,0,0,.28-2.23l7.17-4.47a2.7,2.7,0,0,0,.35-.21,1.82,1.82,0,0,0,.27-.29,38.24,38.24,0,0,0,15.75,2.7c13.75-.41,24.78-7.09,25.17-15.08l0,0,0-.71v0l-.13-4.45v-.23l0,0c-.39-8.23-12-14.52-26-14.11S77.75,232.52,78,240.8l.14,4.49c.1,3.15,1.82,6,4.7,8.34L77.42,257a4,4,0,0,0-2.14-.41,3.68,3.68,0,0,0-1.1.3L74,257l-.22.14-.08.06s0,0-.07.06l-35.71,22a.52.52,0,0,0,0,.89Z" transform="translate(-6.95 -40.38)"/><path class="cls-10" d="M77.49,228.75l6.05-6.29L101,218.14l17.7,3.28,6.41,5.93,1.67,3.69-2.53.89s-3-12-23.18-11.42-22.46,12.76-22.46,12.76L76,232.54Z" transform="translate(-6.95 -40.38)"/><path class="cls-11" d="M76,234a15.26,15.26,0,0,1,5.08-6.12,8.74,8.74,0,0,0-1.75,5.37c.21,7.27,10.43,12.87,22.83,12.5s22.27-6.55,22.06-13.82a8.78,8.78,0,0,0-2.07-5.26,14.86,14.86,0,0,1,5.69,6.37l.61-1.44.14,4.87h0l0,.75,0,0c-.4,8.33-11.89,15.3-26.22,15.72-14.74.43-26.89-6.22-27.14-14.87l-.14-4.67Z" transform="translate(-6.95 -40.38)"/><path class="cls-12" d="M75.13,233.38a9.67,9.67,0,0,0,.36,2.33c2.15,7.47,13.4,12.92,26.78,12.53s24.3-6.5,26-14.09a9.63,9.63,0,0,0,.23-2.34c-.26-8.65-12.41-15.3-27.15-14.87S74.87,224.73,75.13,233.38Zm4.24-.13a8.74,8.74,0,0,1,1.75-5.37c3.35-4.73,11.14-8.18,20.31-8.45s17.15,2.72,20.76,7.24a8.78,8.78,0,0,1,2.07,5.26c.21,7.27-9.66,13.46-22.06,13.82S79.58,240.52,79.37,233.25Z" transform="translate(-6.95 -40.38)"/><path class="cls-13" d="M75.13,233.38a9.67,9.67,0,0,0,.36,2.33c2.15,7.47,13.4,12.92,26.78,12.53s24.3-6.5,26-14.09a9.63,9.63,0,0,0,.23-2.34c-.26-8.65-12.41-15.3-27.15-14.87S74.87,224.73,75.13,233.38Zm4.24-.13a8.74,8.74,0,0,1,1.75-5.37c3.35-4.73,11.14-8.18,20.31-8.45s17.15,2.72,20.76,7.24a8.78,8.78,0,0,1,2.07,5.26c.21,7.27-9.66,13.46-22.06,13.82S79.58,240.52,79.37,233.25Z" transform="translate(-6.95 -40.38)"/><path class="cls-11" d="M71.93,251.88l.51.76h0L74.73,256l.59.87,10-6.26h0a1.69,1.69,0,0,0,.36-.23,2.2,2.2,0,0,0,.7-1,3,3,0,0,0,.15-.62h0a3.45,3.45,0,0,0-.33-2,3.34,3.34,0,0,0-1.72-1.7,2.36,2.36,0,0,0-1.13-.18,1.8,1.8,0,0,0-.65.18l-.11.06-.14.09a.05.05,0,0,0,0,0Z" transform="translate(-6.95 -40.38)"/><path class="cls-13" d="M71.93,251.88l.51.76h0l12.07-7.49a2.36,2.36,0,0,0-1.13-.18,1.8,1.8,0,0,0-.65.18l-.11.06-.14.09a.05.05,0,0,0,0,0Z" transform="translate(-6.95 -40.38)"/><path class="cls-10" d="M74.73,256l.59.87,10-6.26h0a1.69,1.69,0,0,0,.36-.23,2.2,2.2,0,0,0,.7-1,3,3,0,0,0,.15-.62Z" transform="translate(-6.95 -40.38)"/><path class="cls-14" d="M40,269.4,41.46,272l3.75,6.59L75.73,259.7h0a4,4,0,0,0,.63-.4,3.81,3.81,0,0,0,1.22-1.67,5.82,5.82,0,0,0-.31-4.54,6.34,6.34,0,0,0-1-1.55h0a4.78,4.78,0,0,0-3.94-1.71,3.24,3.24,0,0,0-1.14.32l-.19.09-.23.15-.09.06-.06.05Z" transform="translate(-6.95 -40.38)"/><path class="cls-15" d="M40,269.4,41.46,272l3.68-1.11,31.11-19.31h0a4.78,4.78,0,0,0-3.94-1.71,3.24,3.24,0,0,0-1.14.32l-.19.09-.23.15-.09.06-.06.05Z" transform="translate(-6.95 -40.38)"/><path class="cls-16" d="M38.47,276c1.26,2.64,4,4,6.1,2.95h0a2.93,2.93,0,0,0,.63-.4,3.79,3.79,0,0,0,1.21-1.67,5.87,5.87,0,0,0-.3-4.54,5.27,5.27,0,0,0-5-3.27,3.24,3.24,0,0,0-1.13.32l-.19.09-.24.15-.08.06C37.79,270.91,37.31,273.59,38.47,276Z" transform="translate(-6.95 -40.38)"/><path class="cls-17" d="M80.09,233.33c.2,6.86,10,12.14,22,11.79s21.47-6.2,21.26-13.07-10-12.14-22-11.79S79.88,226.46,80.09,233.33Z" transform="translate(-6.95 -40.38)"/><path class="cls-17" d="M89.53,222.65c21.55.47,27.78,11.09,29.58,17.09,2.75-2.17,4.33-4.84,4.25-7.69-.21-6.86-10.06-12.14-22-11.79A33.93,33.93,0,0,0,89.53,222.65Z" transform="translate(-6.95 -40.38)"/><path class="cls-18" d="M81.22,233.29c.19,6.51,9.52,11.51,20.85,11.18s20.34-5.87,20.15-12.39c0-.19,0-.37,0-.56-.63,6.11-9.32,11.14-20.11,11.47-11,.33-20.1-4.38-20.81-10.59A5.31,5.31,0,0,0,81.22,233.29Z" transform="translate(-6.95 -40.38)"/><path class="cls-2" d="M384,402.84l9.66-3.44a.22.22,0,0,1,.27.32L390.42,406a4.22,4.22,0,0,1-1.44,1.5L333.25,442a.89.89,0,0,1-.94,0l-5.26-3.25a.4.4,0,0,1,0-.69l56.17-34.83A3.79,3.79,0,0,1,384,402.84Z" transform="translate(-6.95 -40.38)"/><path class="cls-19" d="M385,397.73l.65,1.21,2.46,4.58,6.12-7.14a.21.21,0,0,0-.07-.34A.16.16,0,0,0,394,396Z" transform="translate(-6.95 -40.38)"/><path class="cls-20" d="M385,397.73l.65,1.21,2-.11,6.51-2.79A.16.16,0,0,0,394,396Z" transform="translate(-6.95 -40.38)"/><path class="cls-21" d="M329.75,431.76l.95,1.67,2.44,4.3,54.13-33.56h0a1.59,1.59,0,0,0,.41-.26,2.36,2.36,0,0,0,.79-1.09,3.78,3.78,0,0,0-.2-3,4.23,4.23,0,0,0-.67-1h0a3.09,3.09,0,0,0-2.57-1.12,2.1,2.1,0,0,0-.74.21.52.52,0,0,0-.13.06l-.15.1,0,0-.05,0Z" transform="translate(-6.95 -40.38)"/><path class="cls-22" d="M329.75,431.76l.95,1.67,2.39-.72,54.52-33.86h0a3.09,3.09,0,0,0-2.57-1.12,2.1,2.1,0,0,0-.74.21.52.52,0,0,0-.13.06l-.15.1,0,0-.05,0Z" transform="translate(-6.95 -40.38)"/><path class="cls-23" d="M328.74,436.07c.83,1.72,2.6,2.58,4,1.92h0a1.87,1.87,0,0,0,.41-.25,2.6,2.6,0,0,0,.79-1.1,3.78,3.78,0,0,0-.2-3,3.42,3.42,0,0,0-3.25-2.13,2.11,2.11,0,0,0-.73.21.52.52,0,0,0-.13.06l-.15.1-.06,0A3.31,3.31,0,0,0,328.74,436.07Z" transform="translate(-6.95 -40.38)"/><path class="cls-24" d="M339,426.05l-4.59,2.86.05,0a2.15,2.15,0,0,1,.69-.19,3.13,3.13,0,0,1,2.59,1.15,3.78,3.78,0,0,1,.67,1,3.88,3.88,0,0,1,.18,3,2.44,2.44,0,0,1-.53.86,1,1,0,0,1-.21.2l4.4-2.7.27-.19a2.39,2.39,0,0,0,.78-1.09,3.73,3.73,0,0,0-.19-3,3.67,3.67,0,0,0-.67-1,3.08,3.08,0,0,0-2.58-1.14,2,2,0,0,0-.74.21Z" transform="translate(-6.95 -40.38)"/><path class="cls-13" d="M334.24,429s.06-.06.1-.07l0,0Z" transform="translate(-6.95 -40.38)"/><path class="cls-25" d="M329.7,431.8a1.74,1.74,0,0,1,.74-.2,3.05,3.05,0,0,1,2.57,1.12,4.44,4.44,0,0,1,.67,1,3.75,3.75,0,0,1,.2,2.95,2.6,2.6,0,0,1-.79,1.1l4.43-2.74a1.45,1.45,0,0,0,.28-.18,1,1,0,0,0,.21-.2,2.37,2.37,0,0,0,.58-.89,3.88,3.88,0,0,0-.19-3,4.71,4.71,0,0,0-.65-1,3.17,3.17,0,0,0-2.6-1.14,2.11,2.11,0,0,0-.74.22l-.05,0h0l0,0-.05,0Z" transform="translate(-6.95 -40.38)"/><ellipse class="cls-2" cx="269.94" cy="396.69" rx="12.6" ry="6.4"/><path class="cls-26" d="M289.5,426.48v6.4c0,3.54-5.65,6.4-12.61,6.4s-12.6-2.86-12.6-6.4v-6.4Z" transform="translate(-6.95 -40.38)"/><path class="cls-26" d="M264.29,426.48c0,3.53,5.64,6.4,12.6,6.4s12.61-2.87,12.61-6.4-5.65-6.4-12.61-6.4S264.29,422.94,264.29,426.48Z" transform="translate(-6.95 -40.38)"/><ellipse class="cls-13" cx="269.94" cy="386.1" rx="5.67" ry="2.88"/><ellipse class="cls-2" cx="295.15" cy="411.84" rx="12.6" ry="6.4"/><path class="cls-27" d="M314.71,441.63V448c0,3.53-5.65,6.4-12.61,6.4s-12.6-2.87-12.6-6.4v-6.41Z" transform="translate(-6.95 -40.38)"/><path class="cls-7" d="M289.5,441.63c0,3.54,5.64,6.41,12.6,6.41s12.61-2.87,12.61-6.41-5.65-6.4-12.61-6.4S289.5,438.1,289.5,441.63Z" transform="translate(-6.95 -40.38)"/><polygon class="cls-13" points="297.42 396.3 287.6 402.29 301.34 404.05 297.42 396.3"/><path class="cls-2" d="M239.08,421.91c0,3.54,5.64,6.41,12.6,6.41s12.61-2.87,12.61-6.41-5.64-6.4-12.61-6.4S239.08,418.38,239.08,421.91Z" transform="translate(-6.95 -40.38)"/><path class="cls-28" d="M264.29,411.32v6.4c0,3.54-5.64,6.41-12.61,6.41s-12.6-2.87-12.6-6.41v-6.4Z" transform="translate(-6.95 -40.38)"/><path class="cls-29" d="M239.08,411.32c0,3.54,5.64,6.4,12.6,6.4s12.61-2.86,12.61-6.4-5.64-6.4-12.61-6.4S239.08,407.79,239.08,411.32Z" transform="translate(-6.95 -40.38)"/><polygon class="cls-13" points="252.51 369.13 242.69 375.13 238.83 367.29 252.51 369.13"/><path class="cls-2" d="M75.57,355.62,104,337.7,82.2,324.3a3.64,3.64,0,0,1,0-6.21L194,249.27a6.58,6.58,0,0,1,6.88,0l140.49,86.5a3.6,3.6,0,0,1,0,6.13L229.52,410.76a6.61,6.61,0,0,1-6.92,0l-23.49-14.46L171.9,414.1Z" transform="translate(-6.95 -40.38)"/><path class="cls-30" d="M189.67,106.46l4.48-2.85h0a3.13,3.13,0,0,1,3.45-.11l140,86.19a8.64,8.64,0,0,1,4.1,7.34V318.83a3.39,3.39,0,0,1-1.51,2.82v0l-.26.16h0L335,324.92a35.59,35.59,0,0,1-.54-4.21l.14-.06-139-85.59a6,6,0,0,1-2.86-5.12V107.14Z" transform="translate(-6.95 -40.38)"/><path class="cls-31" d="M331.67,324.79l-140.81-86.7A6,6,0,0,1,188,233V109.25a3.18,3.18,0,0,1,4.84-2.7l140,86.19a8.59,8.59,0,0,1,4.1,7.33v121.8A3.43,3.43,0,0,1,331.67,324.79Z" transform="translate(-6.95 -40.38)"/><path class="cls-32" d="M328.62,317.7l-134.81-83a5.78,5.78,0,0,1-2.74-4.91V118.26a3,3,0,0,1,4.63-2.59l134,82.52a8.25,8.25,0,0,1,3.93,7V314.9A3.29,3.29,0,0,1,328.62,317.7Z" transform="translate(-6.95 -40.38)"/><path class="cls-30" d="M80.52,310.94h0v-6.51h8l96.1-59a6.56,6.56,0,0,1,6.88,0L323.2,326.53,333.64,328v6.71h0a3.53,3.53,0,0,1-1.69,3.29l-102.4,62.9a6.61,6.61,0,0,1-6.92,0L82.2,314.48A3.6,3.6,0,0,1,80.52,310.94Z" transform="translate(-6.95 -40.38)"/><path class="cls-31" d="M222.6,394,82.2,307.52a3.64,3.64,0,0,1,0-6.21l102.36-62.87a6.58,6.58,0,0,1,6.88,0L331.92,325a3.59,3.59,0,0,1,0,6.13L229.52,394A6.63,6.63,0,0,1,222.6,394Z" transform="translate(-6.95 -40.38)"/><path class="cls-33" d="M249.38,363.69l-117.9-72.61a3.24,3.24,0,0,1,0-5.53l58.62-36.64a5.88,5.88,0,0,1,6.13,0l118,72.66a3.2,3.2,0,0,1,0,5.46l-58.66,36.66A5.89,5.89,0,0,1,249.38,363.69Z" transform="translate(-6.95 -40.38)"/><path class="cls-11" d="M180.49,363.84,131.38,333.6a1.28,1.28,0,0,1,0-2.18l28.44-17.79a2.3,2.3,0,0,1,2.4,0l49.15,30.26a1.26,1.26,0,0,1,0,2.15l-28.46,17.8A2.29,2.29,0,0,1,180.49,363.84Z" transform="translate(-6.95 -40.38)"/><path class="cls-30" d="M303.66,317.76a.73.73,0,0,1,.73,0l6.12,3.77.69-.23v.87h0a.37.37,0,0,1-.18.32l-6.94,4.34a.69.69,0,0,1-.73,0l-6.63-4.07a.38.38,0,0,1-.18-.32h0v-.86Z" transform="translate(-6.95 -40.38)"/><path class="cls-30" d="M293.84,311.71a.67.67,0,0,1,.72,0l6.13,3.76.69-.22v.86h0a.36.36,0,0,1-.18.32l-6.95,4.34a.69.69,0,0,1-.73,0l-6.62-4.07a.37.37,0,0,1-.18-.32h0v-.85Z" transform="translate(-6.95 -40.38)"/><path class="cls-30" d="M284,305.65a.69.69,0,0,1,.72,0l6.13,3.77.69-.23v.87h0a.38.38,0,0,1-.18.32l-6.95,4.34a.69.69,0,0,1-.73,0l-6.62-4.07a.42.42,0,0,1-.19-.32h0v-.86Z" transform="translate(-6.95 -40.38)"/><path class="cls-30" d="M274.2,299.6a.67.67,0,0,1,.72,0l6.13,3.76.69-.22V304h0a.4.4,0,0,1-.18.32l-6.95,4.34a.69.69,0,0,1-.73,0l-6.63-4.07a.37.37,0,0,1-.18-.32h0v-.85Z" transform="translate(-6.95 -40.38)"/><path class="cls-30" d="M264.37,293.54a.69.69,0,0,1,.73,0l6.13,3.77.69-.23V298h0a.36.36,0,0,1-.18.31l-6.94,4.35a.73.73,0,0,1-.73,0l-6.63-4.08a.36.36,0,0,1-.18-.32h0v-.85Z" transform="translate(-6.95 -40.38)"/><path class="cls-30" d="M254.55,287.48a.73.73,0,0,1,.73,0l6.12,3.77.69-.23v.87h0a.37.37,0,0,1-.18.32L255,296.55a.69.69,0,0,1-.73,0l-6.63-4.07a.38.38,0,0,1-.18-.32h0v-.86Z" transform="translate(-6.95 -40.38)"/><path class="cls-30" d="M244.73,281.43a.69.69,0,0,1,.73,0l6.12,3.76.69-.22v.86h0a.36.36,0,0,1-.18.32l-7,4.34a.69.69,0,0,1-.73,0l-6.62-4.07a.37.37,0,0,1-.18-.32h0v-.85Z" transform="translate(-6.95 -40.38)"/><path class="cls-30" d="M244.41,289.63l-6.62-4.07a.38.38,0,0,1,0-.65l6.94-4.34a.69.69,0,0,1,.73,0l6.63,4.08a.37.37,0,0,1,0,.64l-7,4.34A.69.69,0,0,1,244.41,289.63Z" transform="translate(-6.95 -40.38)"/><path class="cls-30" d="M234.91,275.37a.67.67,0,0,1,.72,0l6.13,3.77.69-.23v.87h0a.38.38,0,0,1-.18.32l-7,4.34a.69.69,0,0,1-.73,0L228,280.36a.36.36,0,0,1-.18-.32h0v-.86Z" transform="translate(-6.95 -40.38)"/><path class="cls-30" d="M225.09,269.31a.69.69,0,0,1,.72,0l6.13,3.76.69-.22v.86h0a.37.37,0,0,1-.18.32l-6.95,4.34a.69.69,0,0,1-.73,0l-6.63-4.07A.44.44,0,0,1,218,274h0v-.86Z" transform="translate(-6.95 -40.38)"/><path class="cls-30" d="M215.26,263.26a.69.69,0,0,1,.73,0l6.13,3.76.69-.22v.87h0a.4.4,0,0,1-.18.31l-6.95,4.35a.73.73,0,0,1-.73,0l-6.63-4.08a.36.36,0,0,1-.18-.32h0v-.85Z" transform="translate(-6.95 -40.38)"/><path class="cls-30" d="M205.44,257.2a.73.73,0,0,1,.73,0l6.12,3.77.69-.23v.87h0a.38.38,0,0,1-.18.32l-6.94,4.34a.69.69,0,0,1-.73,0l-6.63-4.07a.38.38,0,0,1-.18-.32h0V261Z" transform="translate(-6.95 -40.38)"/><path class="cls-30" d="M195.62,251.15a.69.69,0,0,1,.73,0l6.12,3.76.69-.22v.86h0a.36.36,0,0,1-.18.32L196,260.21a.69.69,0,0,1-.73,0l-6.63-4.07a.37.37,0,0,1-.18-.32h0V255Z" transform="translate(-6.95 -40.38)"/><path class="cls-30" d="M292.71,324.68a.69.69,0,0,1,.73,0l6.13,3.76.68-.22v.87h0a.36.36,0,0,1-.18.31l-6.94,4.35a.73.73,0,0,1-.73,0l-6.63-4.08a.36.36,0,0,1-.18-.32h0v-.85Z" transform="translate(-6.95 -40.38)"/><path class="cls-30" d="M282.89,318.62a.73.73,0,0,1,.73,0l6.12,3.77.69-.23V323h0a.38.38,0,0,1-.18.32l-6.94,4.34a.69.69,0,0,1-.73,0L276,323.62a.38.38,0,0,1-.18-.32h0v-.86Z" transform="translate(-6.95 -40.38)"/><path class="cls-30" d="M273.07,312.57a.69.69,0,0,1,.73,0l6.12,3.76.69-.22V317h0a.36.36,0,0,1-.18.32l-6.95,4.34a.69.69,0,0,1-.73,0l-6.62-4.07a.37.37,0,0,1-.18-.32h0v-.85Z" transform="translate(-6.95 -40.38)"/><path class="cls-30" d="M263.25,306.51a.67.67,0,0,1,.72,0l6.13,3.77.69-.23v.87h0a.38.38,0,0,1-.18.32l-6.95,4.34a.73.73,0,0,1-.73,0l-6.62-4.08a.39.39,0,0,1-.19-.32h0v-.86Z" transform="translate(-6.95 -40.38)"/><path class="cls-30" d="M253.43,300.45a.71.71,0,0,1,.72,0l6.13,3.77L261,304v.86h0a.4.4,0,0,1-.18.32l-7,4.34a.69.69,0,0,1-.73,0l-6.63-4.07a.41.41,0,0,1-.18-.32h0v-.86Z" transform="translate(-6.95 -40.38)"/><path class="cls-30" d="M243.6,294.4a.69.69,0,0,1,.73,0l6.13,3.76.69-.22v.86h0a.37.37,0,0,1-.17.31L244,303.47a.71.71,0,0,1-.73,0l-6.63-4.07a.36.36,0,0,1-.18-.32h0v-.85Z" transform="translate(-6.95 -40.38)"/><path class="cls-30" d="M233.78,288.34a.73.73,0,0,1,.73,0l6.12,3.77.69-.23v.87h0a.38.38,0,0,1-.18.32l-6.94,4.34a.69.69,0,0,1-.73,0l-6.63-4.07a.38.38,0,0,1-.18-.32h0v-.86Z" transform="translate(-6.95 -40.38)"/><path class="cls-30" d="M224,282.29a.69.69,0,0,1,.73,0l6.12,3.76.69-.22v.86h0a.36.36,0,0,1-.18.32l-6.95,4.34a.67.67,0,0,1-.72,0L217,287.28a.37.37,0,0,1-.18-.32h0v-.85Z" transform="translate(-6.95 -40.38)"/><path class="cls-30" d="M214.14,276.23a.67.67,0,0,1,.72,0L221,280l.69-.23v.87h0a.36.36,0,0,1-.18.31l-6.95,4.35a.73.73,0,0,1-.73,0l-6.62-4.08a.36.36,0,0,1-.18-.32h0v-.86Z" transform="translate(-6.95 -40.38)"/><path class="cls-30" d="M204.32,270.17a.71.71,0,0,1,.72,0l6.13,3.77.69-.23v.87h0a.37.37,0,0,1-.18.32l-7,4.34a.69.69,0,0,1-.73,0l-6.62-4.07a.42.42,0,0,1-.19-.32h0V274Z" transform="translate(-6.95 -40.38)"/><path class="cls-30" d="M194.5,264.12a.67.67,0,0,1,.72,0l6.13,3.76.69-.22v.86h0a.38.38,0,0,1-.18.32l-7,4.34a.69.69,0,0,1-.73,0l-6.63-4.07a.37.37,0,0,1-.18-.32h0v-.85Z" transform="translate(-6.95 -40.38)"/><path class="cls-30" d="M184.67,258.06a.71.71,0,0,1,.73,0l6.13,3.77.69-.23v.87h0a.38.38,0,0,1-.18.32l-6.94,4.34a.69.69,0,0,1-.73,0l-6.63-4.07a.38.38,0,0,1-.18-.32h0v-.86Z" transform="translate(-6.95 -40.38)"/><path class="cls-30" d="M281.77,331.59a.71.71,0,0,1,.72,0l6.13,3.77.69-.23V336h0a.4.4,0,0,1-.18.32l-6.95,4.34a.69.69,0,0,1-.73,0l-6.63-4.07a.41.41,0,0,1-.18-.32h0v-.86Z" transform="translate(-6.95 -40.38)"/><path class="cls-30" d="M271.94,325.54a.69.69,0,0,1,.73,0l6.13,3.76.69-.22v.86h0a.36.36,0,0,1-.18.32l-6.94,4.34a.69.69,0,0,1-.73,0L265,330.53a.37.37,0,0,1-.18-.32h0v-.85Z" transform="translate(-6.95 -40.38)"/><path class="cls-30" d="M262.12,319.48a.73.73,0,0,1,.73,0l6.12,3.77.69-.23v.87h0a.38.38,0,0,1-.18.32l-6.94,4.34a.69.69,0,0,1-.73,0l-6.63-4.07a.38.38,0,0,1-.18-.32h0v-.86Z" transform="translate(-6.95 -40.38)"/><path class="cls-30" d="M252.3,313.43a.69.69,0,0,1,.73,0l6.12,3.76.69-.22v.86h0a.36.36,0,0,1-.18.32l-7,4.34a.67.67,0,0,1-.72,0l-6.63-4.07a.37.37,0,0,1-.18-.32h0v-.85Z" transform="translate(-6.95 -40.38)"/><path class="cls-30" d="M242.48,307.37a.67.67,0,0,1,.72,0l6.13,3.77.69-.23v.87h0a.36.36,0,0,1-.18.31l-7,4.35a.73.73,0,0,1-.73,0l-6.62-4.08a.36.36,0,0,1-.18-.32h0v-.85Z" transform="translate(-6.95 -40.38)"/><path class="cls-30" d="M232.66,301.31a.71.71,0,0,1,.72,0l6.13,3.77.69-.23v.87h0a.37.37,0,0,1-.18.32l-7,4.34a.69.69,0,0,1-.73,0l-6.63-4.07a.44.44,0,0,1-.18-.32h0v-.86Z" transform="translate(-6.95 -40.38)"/><path class="cls-30" d="M222.84,295.26a.67.67,0,0,1,.72,0l6.13,3.76.69-.22v.86h0a.41.41,0,0,1-.18.32l-6.95,4.34a.69.69,0,0,1-.73,0l-6.63-4.07a.37.37,0,0,1-.18-.32h0v-.85Z" transform="translate(-6.95 -40.38)"/><path class="cls-30" d="M213,289.2a.69.69,0,0,1,.73,0l6.12,3.77.69-.23v.87h0a.38.38,0,0,1-.18.32l-6.94,4.34a.69.69,0,0,1-.73,0l-6.63-4.08a.36.36,0,0,1-.18-.32h0V293Z" transform="translate(-6.95 -40.38)"/><path class="cls-30" d="M203.19,283.15a.69.69,0,0,1,.73,0l6.12,3.76.69-.22v.86h0a.37.37,0,0,1-.18.32l-6.94,4.34a.69.69,0,0,1-.73,0l-6.63-4.07a.37.37,0,0,1-.18-.32h0V287Z" transform="translate(-6.95 -40.38)"/><path class="cls-30" d="M193.37,277.09a.69.69,0,0,1,.73,0l6.12,3.76.69-.22v.87h0a.36.36,0,0,1-.18.31l-6.95,4.35a.73.73,0,0,1-.73,0l-6.62-4.08a.36.36,0,0,1-.18-.32h0v-.85Z" transform="translate(-6.95 -40.38)"/><path class="cls-30" d="M183.55,271a.71.71,0,0,1,.72,0l6.13,3.77.69-.23v.87h0a.38.38,0,0,1-.18.32L184,280.1a.69.69,0,0,1-.73,0L176.61,276a.42.42,0,0,1-.19-.32h0v-.86Z" transform="translate(-6.95 -40.38)"/><path class="cls-30" d="M173.73,265a.67.67,0,0,1,.72,0l6.13,3.76.69-.22v.86h0a.38.38,0,0,1-.18.32l-7,4.34a.69.69,0,0,1-.73,0L166.78,270a.4.4,0,0,1-.18-.32h0v-.85Z" transform="translate(-6.95 -40.38)"/><path class="cls-30" d="M270.82,338.51a.67.67,0,0,1,.72,0l6.13,3.76.69-.22v.87h0a.36.36,0,0,1-.18.31l-6.95,4.35a.73.73,0,0,1-.73,0l-6.62-4.08a.39.39,0,0,1-.19-.32h0v-.85Z" transform="translate(-6.95 -40.38)"/><path class="cls-30" d="M261,332.45a.71.71,0,0,1,.72,0l6.13,3.77.69-.23v.87h0a.4.4,0,0,1-.18.32l-6.95,4.34a.69.69,0,0,1-.73,0l-6.63-4.07a.41.41,0,0,1-.18-.32h0v-.86Z" transform="translate(-6.95 -40.38)"/><path class="cls-30" d="M251.17,326.4a.69.69,0,0,1,.73,0l6.13,3.76.69-.22v.86h0a.37.37,0,0,1-.17.32l-7,4.34a.69.69,0,0,1-.73,0l-6.63-4.07a.37.37,0,0,1-.18-.32h0v-.85Z" transform="translate(-6.95 -40.38)"/><path class="cls-30" d="M241.35,320.34a.69.69,0,0,1,.73,0l6.12,3.77.69-.23v.87h0a.38.38,0,0,1-.18.32l-6.94,4.34a.71.71,0,0,1-.73,0l-6.63-4.08a.36.36,0,0,1-.18-.32h0v-.86Z" transform="translate(-6.95 -40.38)"/><path class="cls-30" d="M231.53,314.28a.71.71,0,0,1,.73,0l6.12,3.76.69-.22v.86h0a.37.37,0,0,1-.18.32l-6.95,4.34a.67.67,0,0,1-.72,0l-6.63-4.07a.38.38,0,0,1-.18-.32h0v-.86Z" transform="translate(-6.95 -40.38)"/><path class="cls-30" d="M221.71,308.23a.67.67,0,0,1,.72,0l6.13,3.76.69-.22v.87h0a.36.36,0,0,1-.18.31l-6.95,4.35a.73.73,0,0,1-.73,0l-6.62-4.08a.36.36,0,0,1-.18-.32h0v-.85Z" transform="translate(-6.95 -40.38)"/><path class="cls-30" d="M211.89,302.17a.71.71,0,0,1,.72,0l6.13,3.77.69-.23v.87h0a.38.38,0,0,1-.18.32l-6.95,4.34a.69.69,0,0,1-.73,0L205,307.17a.42.42,0,0,1-.19-.32h0V306Z" transform="translate(-6.95 -40.38)"/><path class="cls-30" d="M202.07,296.12a.67.67,0,0,1,.72,0l6.13,3.76.69-.22v.86h0a.38.38,0,0,1-.18.32l-7,4.34a.69.69,0,0,1-.73,0l-6.63-4.07a.37.37,0,0,1-.18-.32h0v-.85Z" transform="translate(-6.95 -40.38)"/><path class="cls-30" d="M192.24,290.06a.69.69,0,0,1,.73,0l6.13,3.77.69-.23v.87h0a.38.38,0,0,1-.18.32l-6.94,4.34a.73.73,0,0,1-.73,0l-6.63-4.08a.36.36,0,0,1-.18-.32h0v-.86Z" transform="translate(-6.95 -40.38)"/><path class="cls-30" d="M182.42,284a.73.73,0,0,1,.73,0l6.12,3.77.69-.23v.87h0a.37.37,0,0,1-.18.32l-6.94,4.34a.69.69,0,0,1-.73,0L175.48,289a.38.38,0,0,1-.18-.32h0v-.86Z" transform="translate(-6.95 -40.38)"/><path class="cls-30" d="M172.6,278a.69.69,0,0,1,.73,0l6.12,3.76.69-.22v.86h0a.36.36,0,0,1-.18.32L173,287a.69.69,0,0,1-.73,0l-6.62-4.07a.36.36,0,0,1-.18-.32h0v-.85Z" transform="translate(-6.95 -40.38)"/><path class="cls-30" d="M162.78,271.89a.71.71,0,0,1,.72,0l6.13,3.77.69-.23v.87h0a.38.38,0,0,1-.18.32L163.19,281a.69.69,0,0,1-.73,0l-6.62-4.07a.38.38,0,0,1-.18-.32h0v-.86Z" transform="translate(-6.95 -40.38)"/><path class="cls-30" d="M259.87,345.42a.73.73,0,0,1,.73,0l6.12,3.77.69-.22v.86h0a.37.37,0,0,1-.18.32l-7,4.34a.67.67,0,0,1-.72,0l-6.63-4.07a.38.38,0,0,1-.18-.32h0v-.86Z" transform="translate(-6.95 -40.38)"/><path class="cls-30" d="M250.05,339.37a.67.67,0,0,1,.72,0l6.13,3.76.69-.22v.86h0a.36.36,0,0,1-.18.32l-7,4.34a.69.69,0,0,1-.73,0l-6.62-4.07a.36.36,0,0,1-.18-.32h0v-.85Z" transform="translate(-6.95 -40.38)"/><path class="cls-30" d="M240.23,333.31a.71.71,0,0,1,.72,0l6.13,3.77.69-.23v.87h0a.38.38,0,0,1-.18.32l-7,4.34a.69.69,0,0,1-.73,0l-6.63-4.07a.44.44,0,0,1-.18-.32h0v-.86Z" transform="translate(-6.95 -40.38)"/><path class="cls-30" d="M230.41,327.26a.67.67,0,0,1,.72,0l6.13,3.76.69-.22v.86h0a.41.41,0,0,1-.18.32l-7,4.34a.69.69,0,0,1-.73,0l-6.63-4.07a.37.37,0,0,1-.18-.32h0v-.85Z" transform="translate(-6.95 -40.38)"/><path class="cls-30" d="M220.58,321.2a.69.69,0,0,1,.73,0l6.13,3.77.68-.23v.87h0a.36.36,0,0,1-.18.31L221,330.27a.73.73,0,0,1-.73,0l-6.63-4.08a.36.36,0,0,1-.18-.32h0V325Z" transform="translate(-6.95 -40.38)"/><path class="cls-30" d="M210.76,315.14a.73.73,0,0,1,.73,0l6.12,3.77.69-.23v.87h0a.37.37,0,0,1-.18.32l-6.94,4.34a.69.69,0,0,1-.73,0l-6.63-4.07a.38.38,0,0,1-.18-.32h0V319Z" transform="translate(-6.95 -40.38)"/><path class="cls-30" d="M200.94,309.09a.69.69,0,0,1,.73,0l6.12,3.76.69-.22v.86h0a.36.36,0,0,1-.18.32l-7,4.34a.69.69,0,0,1-.73,0L194,314.08a.37.37,0,0,1-.18-.32h0v-.85Z" transform="translate(-6.95 -40.38)"/><path class="cls-30" d="M191.12,303a.67.67,0,0,1,.72,0L198,306.8l.69-.23v.87h0a.38.38,0,0,1-.18.32l-6.95,4.34a.69.69,0,0,1-.73,0L184.18,308a.39.39,0,0,1-.19-.32h0v-.86Z" transform="translate(-6.95 -40.38)"/><path class="cls-30" d="M181.3,297a.67.67,0,0,1,.72,0l6.13,3.76.69-.22v.86h0a.4.4,0,0,1-.18.32L181.71,306a.69.69,0,0,1-.73,0L174.35,302a.4.4,0,0,1-.18-.32h0v-.85Z" transform="translate(-6.95 -40.38)"/><path class="cls-30" d="M171.47,290.92a.69.69,0,0,1,.73,0l6.13,3.76.69-.22v.87h0a.37.37,0,0,1-.17.31l-7,4.35a.73.73,0,0,1-.73,0l-6.63-4.08a.36.36,0,0,1-.18-.32h0v-.85Z" transform="translate(-6.95 -40.38)"/><path class="cls-30" d="M161.65,284.86a.73.73,0,0,1,.73,0l6.12,3.77.69-.23v.87h0a.37.37,0,0,1-.18.32l-6.94,4.34a.69.69,0,0,1-.73,0l-6.63-4.07a.38.38,0,0,1-.18-.32h0v-.86Z" transform="translate(-6.95 -40.38)"/><path class="cls-30" d="M151.83,278.81a.69.69,0,0,1,.73,0l6.12,3.76.69-.22v.86h0a.36.36,0,0,1-.18.32l-6.95,4.34a.67.67,0,0,1-.72,0l-6.63-4.07a.37.37,0,0,1-.18-.32h0v-.85Z" transform="translate(-6.95 -40.38)"/><path class="cls-30" d="M248.92,352.34a.69.69,0,0,1,.73,0l6.12,3.77.69-.23v.87h0a.36.36,0,0,1-.18.31l-6.94,4.35a.73.73,0,0,1-.73,0L242,357.33a.36.36,0,0,1-.18-.32h0v-.85Z" transform="translate(-6.95 -40.38)"/><path class="cls-30" d="M239.1,346.28a.73.73,0,0,1,.73,0l6.12,3.77.69-.23v.87h0a.37.37,0,0,1-.18.32l-6.94,4.34a.69.69,0,0,1-.73,0l-6.63-4.07A.38.38,0,0,1,232,351h0v-.86Z" transform="translate(-6.95 -40.38)"/><path class="cls-30" d="M229.28,340.23a.67.67,0,0,1,.72,0l6.13,3.76.69-.22v.86h0a.36.36,0,0,1-.18.32l-6.95,4.34a.69.69,0,0,1-.73,0l-6.62-4.07a.37.37,0,0,1-.18-.32h0v-.85Z" transform="translate(-6.95 -40.38)"/><path class="cls-30" d="M180.17,310a.69.69,0,0,1,.73,0l6.12,3.76.69-.22v.86h0a.36.36,0,0,1-.18.32L180.58,319a.67.67,0,0,1-.72,0l-6.63-4.07a.37.37,0,0,1-.18-.32h0v-.85Z" transform="translate(-6.95 -40.38)"/><path class="cls-30" d="M170.35,303.89a.67.67,0,0,1,.72,0l6.13,3.77.69-.23v.87h0a.38.38,0,0,1-.18.32l-7,4.34a.73.73,0,0,1-.73,0l-6.62-4.08a.36.36,0,0,1-.18-.32h0v-.86Z" transform="translate(-6.95 -40.38)"/><path class="cls-30" d="M160.53,297.83a.71.71,0,0,1,.72,0l6.13,3.77.69-.22v.86h0a.37.37,0,0,1-.18.32l-6.95,4.34a.69.69,0,0,1-.73,0l-6.63-4.07a.44.44,0,0,1-.18-.32h0v-.86Z" transform="translate(-6.95 -40.38)"/><path class="cls-30" d="M150.71,291.78a.67.67,0,0,1,.72,0l6.13,3.76.69-.22v.86h0a.41.41,0,0,1-.18.32l-2.83,1.77a.73.73,0,0,1-.73,0l-6.62-4.08a.39.39,0,0,1-.19-.32h0V293Z" transform="translate(-6.95 -40.38)"/><path class="cls-30" d="M146.58,294.36a.67.67,0,0,1,.72,0l6.13,3.76.69-.22v.87h0a.38.38,0,0,1-.18.31l-2.83,1.77a.69.69,0,0,1-.73,0l-6.62-4.08a.36.36,0,0,1-.18-.31h0v-.86Z" transform="translate(-6.95 -40.38)"/><path class="cls-30" d="M140.88,285.72a.73.73,0,0,1,.73,0l6.12,3.77.69-.23v.87h0a.38.38,0,0,1-.18.32l-6.94,4.34a.69.69,0,0,1-.73,0l-6.63-4.07a.38.38,0,0,1-.18-.32h0v-.86Z" transform="translate(-6.95 -40.38)"/><path class="cls-30" d="M190,316a.73.73,0,0,1,.73,0l6.12,3.77.69-.23v.87h0a.38.38,0,0,1-.18.32l-3.36,2.1,21,13.71,4.43-2.37a.67.67,0,0,1,.72,0l6.13,3.77.69-.23v.87h0a.38.38,0,0,1-.18.32l-6.95,4.34a.69.69,0,0,1-.73,0l-6.62-4.08h0L186.24,323h0l-3.19-2a.38.38,0,0,1-.18-.32h0v-.86Z" transform="translate(-6.95 -40.38)"/><path class="cls-13" d="M303.35,326l-6.63-4.07a.39.39,0,0,1,0-.66l6.94-4.34a.71.71,0,0,1,.73,0L311,321a.38.38,0,0,1,0,.65L304.08,326A.69.69,0,0,1,303.35,326Z" transform="translate(-6.95 -40.38)"/><path class="cls-13" d="M293.52,319.92l-6.62-4.08a.38.38,0,0,1,0-.65l6.94-4.34a.67.67,0,0,1,.72,0l6.64,4.08a.37.37,0,0,1,0,.64l-6.95,4.35A.73.73,0,0,1,293.52,319.92Z" transform="translate(-6.95 -40.38)"/><path class="cls-13" d="M283.7,313.86l-6.62-4.07a.38.38,0,0,1,0-.66l6.94-4.34a.71.71,0,0,1,.72,0l6.64,4.08a.38.38,0,0,1,0,.65l-6.95,4.34A.69.69,0,0,1,283.7,313.86Z" transform="translate(-6.95 -40.38)"/><path class="cls-13" d="M273.88,307.8l-6.63-4.07a.38.38,0,0,1,0-.65l6.95-4.34a.67.67,0,0,1,.72,0l6.64,4.08a.37.37,0,0,1,0,.64l-6.95,4.34A.69.69,0,0,1,273.88,307.8Z" transform="translate(-6.95 -40.38)"/><path class="cls-13" d="M264.06,301.75l-6.63-4.08a.38.38,0,0,1,0-.65l6.94-4.34a.69.69,0,0,1,.73,0l6.63,4.08a.38.38,0,0,1,0,.65l-6.94,4.34A.73.73,0,0,1,264.06,301.75Z" transform="translate(-6.95 -40.38)"/><path class="cls-13" d="M254.24,295.69l-6.63-4.07a.39.39,0,0,1,0-.66l6.94-4.34a.73.73,0,0,1,.73,0l6.63,4.08a.38.38,0,0,1,0,.65L255,295.69A.69.69,0,0,1,254.24,295.69Z" transform="translate(-6.95 -40.38)"/><path class="cls-13" d="M234.59,283.58,228,279.51a.38.38,0,0,1,0-.66l6.94-4.34a.71.71,0,0,1,.72,0l6.64,4.08a.38.38,0,0,1,0,.65l-7,4.34A.69.69,0,0,1,234.59,283.58Z" transform="translate(-6.95 -40.38)"/><path class="cls-13" d="M224.77,277.52l-6.63-4.07a.39.39,0,0,1,0-.66l7-4.33a.67.67,0,0,1,.72,0l6.64,4.07a.38.38,0,0,1,0,.65l-6.95,4.34A.69.69,0,0,1,224.77,277.52Z" transform="translate(-6.95 -40.38)"/><path class="cls-13" d="M215,271.47l-6.63-4.08a.38.38,0,0,1,0-.65l6.94-4.34a.69.69,0,0,1,.73,0l6.64,4.08a.37.37,0,0,1,0,.64l-6.95,4.35A.73.73,0,0,1,215,271.47Z" transform="translate(-6.95 -40.38)"/><path class="cls-13" d="M205.13,265.41l-6.63-4.07a.39.39,0,0,1,0-.66l6.94-4.34a.73.73,0,0,1,.73,0l6.63,4.08a.38.38,0,0,1,0,.65l-6.94,4.34A.69.69,0,0,1,205.13,265.41Z" transform="translate(-6.95 -40.38)"/><path class="cls-13" d="M195.31,259.35l-6.63-4.07a.38.38,0,0,1,0-.65l6.94-4.34a.69.69,0,0,1,.73,0l6.63,4.08a.37.37,0,0,1,0,.64L196,259.35A.69.69,0,0,1,195.31,259.35Z" transform="translate(-6.95 -40.38)"/><path class="cls-13" d="M292.4,332.89l-6.63-4.08a.38.38,0,0,1,0-.65l6.94-4.34a.69.69,0,0,1,.73,0l6.63,4.08a.38.38,0,0,1,0,.65l-6.94,4.34A.73.73,0,0,1,292.4,332.89Z" transform="translate(-6.95 -40.38)"/><path class="cls-13" d="M282.58,326.83,276,322.76a.39.39,0,0,1,0-.66l6.94-4.34a.73.73,0,0,1,.73,0l6.63,4.08a.38.38,0,0,1,0,.65l-6.94,4.34A.69.69,0,0,1,282.58,326.83Z" transform="translate(-6.95 -40.38)"/><path class="cls-13" d="M272.75,320.77l-6.62-4.07a.38.38,0,0,1,0-.65l6.94-4.34a.69.69,0,0,1,.73,0l6.63,4.08a.37.37,0,0,1,0,.64l-6.95,4.34A.69.69,0,0,1,272.75,320.77Z" transform="translate(-6.95 -40.38)"/><path class="cls-13" d="M262.93,314.72l-6.62-4.07a.38.38,0,0,1,0-.66l6.94-4.34a.69.69,0,0,1,.72,0l6.64,4.08a.38.38,0,0,1,0,.65l-6.95,4.34A.69.69,0,0,1,262.93,314.72Z" transform="translate(-6.95 -40.38)"/><path class="cls-13" d="M253.11,308.66l-6.63-4.07a.39.39,0,0,1,0-.66l7-4.33a.67.67,0,0,1,.72,0l6.64,4.07a.38.38,0,0,1,0,.65l-7,4.34A.69.69,0,0,1,253.11,308.66Z" transform="translate(-6.95 -40.38)"/><path class="cls-13" d="M243.29,302.61l-6.63-4.08a.38.38,0,0,1,0-.65l6.94-4.34a.69.69,0,0,1,.73,0l6.64,4.08a.37.37,0,0,1,0,.64L244,302.61A.73.73,0,0,1,243.29,302.61Z" transform="translate(-6.95 -40.38)"/><path class="cls-13" d="M233.47,296.55l-6.63-4.07a.39.39,0,0,1,0-.66l6.94-4.34a.73.73,0,0,1,.73,0l6.63,4.08a.38.38,0,0,1,0,.65l-6.94,4.34A.69.69,0,0,1,233.47,296.55Z" transform="translate(-6.95 -40.38)"/><path class="cls-13" d="M223.65,290.49,217,286.42a.38.38,0,0,1,0-.65l6.94-4.34a.69.69,0,0,1,.73,0l6.63,4.08a.37.37,0,0,1,0,.64l-6.95,4.34A.67.67,0,0,1,223.65,290.49Z" transform="translate(-6.95 -40.38)"/><path class="cls-13" d="M213.82,284.44l-6.62-4.08a.38.38,0,0,1,0-.65l6.94-4.34a.67.67,0,0,1,.72,0l6.64,4.08a.38.38,0,0,1,0,.65l-6.95,4.34A.69.69,0,0,1,213.82,284.44Z" transform="translate(-6.95 -40.38)"/><path class="cls-13" d="M204,278.38l-6.62-4.07a.38.38,0,0,1,0-.66l6.94-4.34a.69.69,0,0,1,.72,0l6.64,4.07a.38.38,0,0,1,0,.65l-7,4.34A.69.69,0,0,1,204,278.38Z" transform="translate(-6.95 -40.38)"/><path class="cls-13" d="M194.18,272.33l-6.63-4.08a.38.38,0,0,1,0-.65l6.95-4.34a.67.67,0,0,1,.72,0l6.64,4.08a.37.37,0,0,1,0,.64l-7,4.35A.73.73,0,0,1,194.18,272.33Z" transform="translate(-6.95 -40.38)"/><path class="cls-13" d="M184.36,266.27l-6.63-4.07a.39.39,0,0,1,0-.66l6.94-4.34a.73.73,0,0,1,.73,0l6.63,4.08a.38.38,0,0,1,0,.65l-6.94,4.34A.69.69,0,0,1,184.36,266.27Z" transform="translate(-6.95 -40.38)"/><path class="cls-13" d="M281.45,339.8l-6.63-4.07a.39.39,0,0,1,0-.66l6.95-4.33a.67.67,0,0,1,.72,0l6.64,4.07a.38.38,0,0,1,0,.65l-6.95,4.34A.69.69,0,0,1,281.45,339.8Z" transform="translate(-6.95 -40.38)"/><path class="cls-13" d="M271.63,333.75,265,329.67a.38.38,0,0,1,0-.65l6.94-4.34a.69.69,0,0,1,.73,0l6.63,4.08a.37.37,0,0,1,0,.64l-6.94,4.35A.73.73,0,0,1,271.63,333.75Z" transform="translate(-6.95 -40.38)"/><path class="cls-13" d="M261.81,327.69l-6.63-4.07a.39.39,0,0,1,0-.66l6.94-4.34a.73.73,0,0,1,.73,0l6.63,4.08a.38.38,0,0,1,0,.65l-6.94,4.34A.69.69,0,0,1,261.81,327.69Z" transform="translate(-6.95 -40.38)"/><path class="cls-13" d="M252,321.63l-6.63-4.07a.38.38,0,0,1,0-.65l6.94-4.34a.69.69,0,0,1,.73,0l6.63,4.08a.37.37,0,0,1,0,.64l-7,4.34A.67.67,0,0,1,252,321.63Z" transform="translate(-6.95 -40.38)"/><path class="cls-13" d="M242.16,315.58l-6.62-4.08a.38.38,0,0,1,0-.65l6.94-4.34a.67.67,0,0,1,.72,0l6.64,4.08a.38.38,0,0,1,0,.65l-7,4.34A.73.73,0,0,1,242.16,315.58Z" transform="translate(-6.95 -40.38)"/><path class="cls-13" d="M232.34,309.52l-6.63-4.07a.39.39,0,0,1,0-.66l6.94-4.34a.71.71,0,0,1,.72,0l6.64,4.08a.38.38,0,0,1,0,.65l-7,4.34A.69.69,0,0,1,232.34,309.52Z" transform="translate(-6.95 -40.38)"/><path class="cls-13" d="M222.52,303.46l-6.63-4.07a.38.38,0,0,1,0-.65l7-4.34a.67.67,0,0,1,.72,0l6.64,4.08a.37.37,0,0,1,0,.64l-6.95,4.35A.71.71,0,0,1,222.52,303.46Z" transform="translate(-6.95 -40.38)"/><path class="cls-13" d="M212.7,297.41l-6.63-4.07a.39.39,0,0,1,0-.66l6.94-4.34a.73.73,0,0,1,.73,0l6.63,4.08a.38.38,0,0,1,0,.65l-6.94,4.34A.69.69,0,0,1,212.7,297.41Z" transform="translate(-6.95 -40.38)"/><path class="cls-13" d="M202.88,291.35l-6.63-4.07a.39.39,0,0,1,0-.66l6.94-4.33a.69.69,0,0,1,.73,0l6.63,4.07a.38.38,0,0,1,0,.65l-6.94,4.34A.69.69,0,0,1,202.88,291.35Z" transform="translate(-6.95 -40.38)"/><path class="cls-13" d="M193.05,285.3l-6.62-4.08a.38.38,0,0,1,0-.65l6.94-4.34a.69.69,0,0,1,.73,0l6.63,4.08a.37.37,0,0,1,0,.64l-6.95,4.35A.73.73,0,0,1,193.05,285.3Z" transform="translate(-6.95 -40.38)"/><path class="cls-13" d="M183.23,279.24l-6.62-4.07a.38.38,0,0,1,0-.66l6.94-4.34a.71.71,0,0,1,.72,0l6.64,4.08a.38.38,0,0,1,0,.65L184,279.24A.69.69,0,0,1,183.23,279.24Z" transform="translate(-6.95 -40.38)"/><path class="cls-13" d="M173.41,273.18l-6.63-4.07a.38.38,0,0,1,0-.65l6.95-4.34a.67.67,0,0,1,.72,0l6.64,4.08a.37.37,0,0,1,0,.64l-7,4.34A.69.69,0,0,1,173.41,273.18Z" transform="translate(-6.95 -40.38)"/><path class="cls-13" d="M270.5,346.72l-6.62-4.08a.38.38,0,0,1,0-.65l6.94-4.34a.67.67,0,0,1,.72,0l6.64,4.08a.38.38,0,0,1,0,.65l-6.95,4.34A.73.73,0,0,1,270.5,346.72Z" transform="translate(-6.95 -40.38)"/><path class="cls-13" d="M260.68,340.66l-6.63-4.07a.39.39,0,0,1,0-.66l6.95-4.34a.71.71,0,0,1,.72,0l6.64,4.08a.38.38,0,0,1,0,.65l-6.95,4.34A.69.69,0,0,1,260.68,340.66Z" transform="translate(-6.95 -40.38)"/><path class="cls-13" d="M250.86,334.6l-6.63-4.07a.38.38,0,0,1,0-.65l6.94-4.34a.69.69,0,0,1,.73,0l6.64,4.08a.37.37,0,0,1,0,.64l-7,4.34A.69.69,0,0,1,250.86,334.6Z" transform="translate(-6.95 -40.38)"/><path class="cls-13" d="M241,328.55l-6.63-4.07a.39.39,0,0,1,0-.66l6.94-4.34a.73.73,0,0,1,.73,0l6.63,4.08a.38.38,0,0,1,0,.65l-6.94,4.34A.69.69,0,0,1,241,328.55Z" transform="translate(-6.95 -40.38)"/><path class="cls-13" d="M231.22,322.49l-6.63-4.07a.39.39,0,0,1,0-.66l6.94-4.33a.69.69,0,0,1,.73,0l6.63,4.07a.38.38,0,0,1,0,.65l-6.95,4.34A.67.67,0,0,1,231.22,322.49Z" transform="translate(-6.95 -40.38)"/><path class="cls-13" d="M221.39,316.44l-6.62-4.08a.38.38,0,0,1,0-.65l6.94-4.34a.67.67,0,0,1,.72,0l6.64,4.08a.37.37,0,0,1,0,.64l-6.95,4.35A.73.73,0,0,1,221.39,316.44Z" transform="translate(-6.95 -40.38)"/><path class="cls-13" d="M211.57,310.38,205,306.31a.38.38,0,0,1,0-.66l6.94-4.34a.71.71,0,0,1,.72,0l6.64,4.08a.38.38,0,0,1,0,.65l-6.95,4.34A.69.69,0,0,1,211.57,310.38Z" transform="translate(-6.95 -40.38)"/><path class="cls-13" d="M201.75,304.32l-6.63-4.07a.38.38,0,0,1,0-.65l6.95-4.34a.67.67,0,0,1,.72,0l6.64,4.08a.37.37,0,0,1,0,.64l-7,4.34A.69.69,0,0,1,201.75,304.32Z" transform="translate(-6.95 -40.38)"/><path class="cls-13" d="M191.93,298.27l-6.63-4.08a.38.38,0,0,1,0-.65l6.94-4.34a.69.69,0,0,1,.73,0l6.63,4.08a.38.38,0,0,1,0,.65l-6.94,4.34A.69.69,0,0,1,191.93,298.27Z" transform="translate(-6.95 -40.38)"/><path class="cls-13" d="M182.11,292.21l-6.63-4.07a.39.39,0,0,1,0-.66l6.94-4.33a.69.69,0,0,1,.73,0l6.63,4.07a.38.38,0,0,1,0,.65l-6.94,4.34A.69.69,0,0,1,182.11,292.21Z" transform="translate(-6.95 -40.38)"/><path class="cls-13" d="M172.28,286.16l-6.62-4.08a.38.38,0,0,1,0-.65l6.94-4.34a.69.69,0,0,1,.73,0l6.63,4.08a.37.37,0,0,1,0,.64l-7,4.35A.73.73,0,0,1,172.28,286.16Z" transform="translate(-6.95 -40.38)"/><path class="cls-13" d="M162.46,280.1,155.84,276a.38.38,0,0,1,0-.66l6.94-4.34a.71.71,0,0,1,.72,0l6.64,4.08a.38.38,0,0,1,0,.65l-6.95,4.34A.69.69,0,0,1,162.46,280.1Z" transform="translate(-6.95 -40.38)"/><path class="cls-13" d="M259.56,353.63l-6.63-4.07a.38.38,0,0,1,0-.66l6.94-4.33a.69.69,0,0,1,.73,0l6.63,4.07a.38.38,0,0,1,0,.65l-7,4.34A.67.67,0,0,1,259.56,353.63Z" transform="translate(-6.95 -40.38)"/><path class="cls-13" d="M249.73,347.58l-6.62-4.08a.38.38,0,0,1,0-.65l6.94-4.34a.67.67,0,0,1,.72,0l6.64,4.08a.37.37,0,0,1,0,.64l-7,4.35A.73.73,0,0,1,249.73,347.58Z" transform="translate(-6.95 -40.38)"/><path class="cls-13" d="M239.91,341.52l-6.63-4.07a.39.39,0,0,1,0-.66l6.94-4.34a.71.71,0,0,1,.72,0l6.64,4.08a.38.38,0,0,1,0,.65l-7,4.34A.69.69,0,0,1,239.91,341.52Z" transform="translate(-6.95 -40.38)"/><path class="cls-13" d="M230.09,335.46l-6.63-4.07a.38.38,0,0,1,0-.65l6.95-4.34a.67.67,0,0,1,.72,0l6.64,4.08a.37.37,0,0,1,0,.64l-7,4.34A.69.69,0,0,1,230.09,335.46Z" transform="translate(-6.95 -40.38)"/><path class="cls-13" d="M220.27,329.41l-6.63-4.08a.38.38,0,0,1,0-.65l6.94-4.34a.69.69,0,0,1,.73,0l6.63,4.08a.38.38,0,0,1,0,.65L221,329.41A.71.71,0,0,1,220.27,329.41Z" transform="translate(-6.95 -40.38)"/><path class="cls-13" d="M210.45,323.35l-6.63-4.07a.39.39,0,0,1,0-.66l6.94-4.34a.71.71,0,0,1,.73,0l6.63,4.07a.38.38,0,0,1,0,.65l-6.94,4.34A.69.69,0,0,1,210.45,323.35Z" transform="translate(-6.95 -40.38)"/><path class="cls-13" d="M200.62,317.3,194,313.22a.38.38,0,0,1,0-.65l6.94-4.34a.69.69,0,0,1,.73,0l6.63,4.08a.37.37,0,0,1,0,.64l-7,4.35A.73.73,0,0,1,200.62,317.3Z" transform="translate(-6.95 -40.38)"/><path class="cls-13" d="M190.8,311.24l-6.62-4.07a.38.38,0,0,1,0-.66l6.94-4.34a.71.71,0,0,1,.72,0l6.64,4.08a.38.38,0,0,1,0,.65l-6.95,4.34A.69.69,0,0,1,190.8,311.24Z" transform="translate(-6.95 -40.38)"/><path class="cls-13" d="M181,305.18l-6.63-4.07a.38.38,0,0,1,0-.65l7-4.34a.67.67,0,0,1,.72,0l6.64,4.07a.38.38,0,0,1,0,.65l-6.95,4.34A.69.69,0,0,1,181,305.18Z" transform="translate(-6.95 -40.38)"/><path class="cls-13" d="M171.16,299.13l-6.63-4.08a.38.38,0,0,1,0-.65l6.94-4.34a.69.69,0,0,1,.73,0l6.64,4.08a.38.38,0,0,1,0,.65l-7,4.34A.73.73,0,0,1,171.16,299.13Z" transform="translate(-6.95 -40.38)"/><path class="cls-13" d="M161.34,293.07,154.71,289a.39.39,0,0,1,0-.66l6.94-4.34a.73.73,0,0,1,.73,0l6.63,4.08a.38.38,0,0,1,0,.65l-6.94,4.34A.69.69,0,0,1,161.34,293.07Z" transform="translate(-6.95 -40.38)"/><path class="cls-13" d="M151.52,287l-6.63-4.07a.38.38,0,0,1,0-.65l6.94-4.34a.69.69,0,0,1,.73,0l6.63,4.08a.37.37,0,0,1,0,.64L152.24,287A.67.67,0,0,1,151.52,287Z" transform="translate(-6.95 -40.38)"/><path class="cls-13" d="M248.61,360.55,242,356.47a.38.38,0,0,1,0-.65l6.94-4.34a.69.69,0,0,1,.73,0l6.63,4.08a.38.38,0,0,1,0,.65l-6.94,4.34A.73.73,0,0,1,248.61,360.55Z" transform="translate(-6.95 -40.38)"/><path class="cls-13" d="M238.79,354.49l-6.63-4.07a.39.39,0,0,1,0-.66l6.94-4.34a.73.73,0,0,1,.73,0l6.63,4.08a.38.38,0,0,1,0,.65l-6.94,4.34A.69.69,0,0,1,238.79,354.49Z" transform="translate(-6.95 -40.38)"/><path class="cls-13" d="M229,348.43l-6.62-4.07a.38.38,0,0,1,0-.65l6.94-4.34a.67.67,0,0,1,.72,0l6.64,4.08a.37.37,0,0,1,0,.64l-6.95,4.34A.69.69,0,0,1,229,348.43Z" transform="translate(-6.95 -40.38)"/><path class="cls-13" d="M179.86,318.15l-6.63-4.07a.38.38,0,0,1,0-.65l6.94-4.34a.69.69,0,0,1,.73,0l6.63,4.08a.37.37,0,0,1,0,.64l-6.95,4.34A.67.67,0,0,1,179.86,318.15Z" transform="translate(-6.95 -40.38)"/><path class="cls-13" d="M170,312.1,163.41,308a.38.38,0,0,1,0-.65l6.94-4.34a.67.67,0,0,1,.72,0l6.64,4.08a.38.38,0,0,1,0,.65l-7,4.34A.69.69,0,0,1,170,312.1Z" transform="translate(-6.95 -40.38)"/><path class="cls-13" d="M160.21,306,153.58,302a.39.39,0,0,1,0-.66l6.94-4.33a.67.67,0,0,1,.72,0l6.64,4.07a.38.38,0,0,1,0,.65L160.94,306A.69.69,0,0,1,160.21,306Z" transform="translate(-6.95 -40.38)"/><path class="cls-13" d="M154.51,297.41l-6.62-4.07a.38.38,0,0,1,0-.66l2.82-1.76a.67.67,0,0,1,.72,0l6.64,4.08a.37.37,0,0,1,0,.64l-2.83,1.77A.69.69,0,0,1,154.51,297.41Z" transform="translate(-6.95 -40.38)"/><path class="cls-13" d="M150.38,300l-6.62-4.07a.38.38,0,0,1,0-.66l2.82-1.76a.67.67,0,0,1,.72,0l6.64,4.08a.38.38,0,0,1,0,.65L151.11,300A.69.69,0,0,1,150.38,300Z" transform="translate(-6.95 -40.38)"/><path class="cls-13" d="M140.57,293.93l-6.63-4.07a.39.39,0,0,1,0-.66l6.94-4.34a.73.73,0,0,1,.73,0l6.63,4.08a.38.38,0,0,1,0,.65l-6.94,4.34A.69.69,0,0,1,140.57,293.93Z" transform="translate(-6.95 -40.38)"/><path class="cls-13" d="M183.05,319.48l6.94-4.34a.73.73,0,0,1,.73,0l6.63,4.08,0,0,24.31,15h0l5.14,3.16a.38.38,0,0,1,0,.65l-6.95,4.34a.69.69,0,0,1-.73,0l-6.62-4.07h0l-25.74-15.88h0l-3.72-2.28A.39.39,0,0,1,183.05,319.48Z" transform="translate(-6.95 -40.38)"/><path class="cls-34" d="M439,184.32v18.61a1.55,1.55,0,0,0,.66,1.26l.06,0,6.08,3.75,12.57,7.74a.59.59,0,0,0,.66,0,.62.62,0,0,0,.27-.51V197.06a1.92,1.92,0,0,0-.89-1.62l-18.7-11.52a.49.49,0,0,0-.42,0l-.08.05A.47.47,0,0,0,439,184.32Z" transform="translate(-6.95 -40.38)"/><path class="cls-34" d="M307.37,103.31v18.62a1.51,1.51,0,0,0,.65,1.25l.06,0,6.08,3.75,12.57,7.74a.62.62,0,0,0,.94-.51V116.05a2,2,0,0,0-.9-1.62l-18.7-11.52a.45.45,0,0,0-.42,0l-.08,0A.47.47,0,0,0,307.37,103.31Z" transform="translate(-6.95 -40.38)"/><path class="cls-35" d="M268.84,68V95.83a2.28,2.28,0,0,0,1,1.89l.08,0,9.1,5.62L297.81,115a.87.87,0,0,0,1,0,.9.9,0,0,0,.42-.76V87.05a2.85,2.85,0,0,0-1.35-2.42l-28-17.24a.66.66,0,0,0-.62,0,.37.37,0,0,0-.12.07A.7.7,0,0,0,268.84,68Z" transform="translate(-6.95 -40.38)"/><path class="cls-35" d="M397.31,407.46V435.3a2.3,2.3,0,0,0,1,1.89l.08.05,9.11,5.61,18.79,11.59a.89.89,0,0,0,1,0,.92.92,0,0,0,.41-.76V426.52a2.87,2.87,0,0,0-1.34-2.42l-28-17.24a.66.66,0,0,0-.62-.05.33.33,0,0,0-.13.07A.69.69,0,0,0,397.31,407.46Z" transform="translate(-6.95 -40.38)"/><path class="cls-17" d="M98.44,159v31.73a2.61,2.61,0,0,0,1.12,2.15l.09.06L110,199.34l21.42,13.2a1,1,0,0,0,1.13,0,1,1,0,0,0,.47-.86V180.73a3.27,3.27,0,0,0-1.53-2.76L99.64,158.33a.77.77,0,0,0-.72-.06.41.41,0,0,0-.14.08A.79.79,0,0,0,98.44,159Z" transform="translate(-6.95 -40.38)"/><path class="cls-17" d="M350.45,73.94v31.73a2.61,2.61,0,0,0,1.12,2.15.33.33,0,0,1,.1.06L362,114.27l21.42,13.2a1,1,0,0,0,1.12,0,1,1,0,0,0,.48-.86V95.66a3.29,3.29,0,0,0-1.53-2.76L351.65,73.26a.75.75,0,0,0-.71-.06.46.46,0,0,0-.14.07A.81.81,0,0,0,350.45,73.94Z" transform="translate(-6.95 -40.38)"/><path class="cls-17" d="M362.87,154.58v31.73a2.59,2.59,0,0,0,1.13,2.15l.09.06,10.37,6.4,21.42,13.19a1,1,0,0,0,1.12,0,1,1,0,0,0,.48-.87V176.3a3.29,3.29,0,0,0-1.53-2.76L364.07,153.9a.75.75,0,0,0-.71-.06l-.14.08A.81.81,0,0,0,362.87,154.58Z" transform="translate(-6.95 -40.38)"/><path class="cls-17" d="M344.75,199v26.61a2.18,2.18,0,0,0,.94,1.8l.08.05,8.7,5.37,18,11.06a.83.83,0,0,0,.94,0,.85.85,0,0,0,.4-.73V217.22a2.76,2.76,0,0,0-1.28-2.32l-26.74-16.47a.63.63,0,0,0-.59-.05.67.67,0,0,0-.12.06A.68.68,0,0,0,344.75,199Z" transform="translate(-6.95 -40.38)"/><path class="cls-36" d="M126.52,152.55V192a3.25,3.25,0,0,0,1.4,2.67l.12.08,12.9,7.95,26.65,16.42a1.23,1.23,0,0,0,1.4,0l5.22-3.22a1.49,1.49,0,0,0,.75-1.31V176.43a4.27,4.27,0,0,0-2-3.65l-39.17-24.16a1.63,1.63,0,0,0-1.65,0l-5,3a.75.75,0,0,0-.17.1A1,1,0,0,0,126.52,152.55Z" transform="translate(-6.95 -40.38)"/><path class="cls-37" d="M126.52,152.55V192a3.25,3.25,0,0,0,1.4,2.67l.12.08,12.9,7.95,26.65,16.42a1.23,1.23,0,0,0,1.4,0,1.28,1.28,0,0,0,.59-1.08V179.58a4.08,4.08,0,0,0-1.91-3.44L128,151.71a1,1,0,0,0-.89-.08.75.75,0,0,0-.17.1A1,1,0,0,0,126.52,152.55Z" transform="translate(-6.95 -40.38)"/><path class="cls-13" d="M146.1,177.12l-2.64,3.95a.6.6,0,0,1-.72.22L137,179.08a.6.6,0,0,0-.72.89l4.56,6.88a.58.58,0,0,1,.09.44l-1.18,6.24a.6.6,0,0,0,.59.71l6.12,0a.61.61,0,0,1,.44.19l5.59,5.91a.6.6,0,0,0,1-.51l-1-6.25a.61.61,0,0,1,.35-.65l4.33-1.92a.6.6,0,0,0,.1-1l-6.89-4.66a.6.6,0,0,1-.22-.28l-3.06-7.83A.6.6,0,0,0,146.1,177.12Z" transform="translate(-6.95 -40.38)"/><path class="cls-7" d="M228.85,43.19V69.8a2.19,2.19,0,0,0,.94,1.8l.08.06,8.7,5.36,18,11.07a.86.86,0,0,0,1,0L261,85.9a1,1,0,0,0,.5-.89V59.29a2.85,2.85,0,0,0-1.38-2.46l-26.4-16.29a1.08,1.08,0,0,0-1.11,0l-3.35,2-.12.06A.68.68,0,0,0,228.85,43.19Z" transform="translate(-6.95 -40.38)"/><path class="cls-28" d="M228.85,43.19V69.8a2.19,2.19,0,0,0,.94,1.8l.08.06,8.7,5.36,18,11.07a.88.88,0,0,0,1.34-.75V61.41a2.76,2.76,0,0,0-1.28-2.32L229.86,42.62a.65.65,0,0,0-.6,0l-.12.06A.68.68,0,0,0,228.85,43.19Z" transform="translate(-6.95 -40.38)"/><path class="cls-13" d="M239.28,58.28a8.14,8.14,0,0,0,3.81,6.1c2.1,1.26,3.81.58,3.81-1.52a8.17,8.17,0,0,0-3.81-6.11C241,55.49,239.28,56.17,239.28,58.28Z" transform="translate(-6.95 -40.38)"/><path class="cls-13" d="M234.46,68.74,251.71,79.1c0-4.75-3.86-10.9-8.62-13.76-2.38-1.43-4.54-1.76-6.1-1.14S234.46,66.37,234.46,68.74Z" transform="translate(-6.95 -40.38)"/><path class="cls-28" d="M463.13,228.37V255a2.19,2.19,0,0,0,.94,1.8l.08.06,8.7,5.36,18,11.07a.83.83,0,0,0,.94,0l3.52-2.17a1,1,0,0,0,.5-.88V244.47A2.85,2.85,0,0,0,494.4,242L468,225.72a1.08,1.08,0,0,0-1.11,0l-3.35,2a.37.37,0,0,0-.12.07A.65.65,0,0,0,463.13,228.37Z" transform="translate(-6.95 -40.38)"/><path class="cls-29" d="M463.13,228.37V255a2.19,2.19,0,0,0,.94,1.8l.08.06,8.7,5.36,18,11.07a.83.83,0,0,0,.94,0,.86.86,0,0,0,.39-.72V246.59a2.77,2.77,0,0,0-1.28-2.32L464.14,227.8a.65.65,0,0,0-.6-.05.37.37,0,0,0-.12.07A.65.65,0,0,0,463.13,228.37Z" transform="translate(-6.95 -40.38)"/><path class="cls-13" d="M478.48,261.86l7.77-3.1c.73-.3.73-1.48,0-2.65s-1.92-1.89-2.65-1.6l-4.42,1.77-8.66-19.22a3.45,3.45,0,0,0-2.58-2.16c-.88,0-1.15,1-.61,2.22Z" transform="translate(-6.95 -40.38)"/><path class="cls-27" d="M393,148.24v26.61a2.18,2.18,0,0,0,.94,1.8l.08,0,8.7,5.36,18,11.07a.84.84,0,0,0,.94,0l3.53-2.17a1,1,0,0,0,.5-.89V164.34a2.88,2.88,0,0,0-1.38-2.47l-26.4-16.28a1.08,1.08,0,0,0-1.11,0l-3.35,2-.12.07A.68.68,0,0,0,393,148.24Z" transform="translate(-6.95 -40.38)"/><path class="cls-7" d="M393,148.24v26.61a2.18,2.18,0,0,0,.94,1.8l.08,0,8.7,5.36,18,11.07a.84.84,0,0,0,.94,0,.87.87,0,0,0,.4-.73V166.45a2.74,2.74,0,0,0-1.28-2.31L394,147.67a.68.68,0,0,0-.6-.06l-.12.07A.68.68,0,0,0,393,148.24Z" transform="translate(-6.95 -40.38)"/><path class="cls-13" d="M412.28,175.64a3,3,0,0,0,2.65,2.54,2,2,0,0,0,1.74-2.54,3,3,0,0,0-2.64-2.53A2,2,0,0,0,412.28,175.64Z" transform="translate(-6.95 -40.38)"/><path class="cls-13" d="M404.5,171.27a3,3,0,0,0,2.64,2.54,2,2,0,0,0,1.75-2.54,3,3,0,0,0-2.65-2.53A2,2,0,0,0,404.5,171.27Z" transform="translate(-6.95 -40.38)"/><path class="cls-13" d="M396.71,166.9a3,3,0,0,0,2.64,2.54,2,2,0,0,0,1.75-2.54,3,3,0,0,0-2.64-2.53A2,2,0,0,0,396.71,166.9Z" transform="translate(-6.95 -40.38)"/><path class="cls-38" d="M326.26,217.82v26.62a2.18,2.18,0,0,0,.94,1.8l.07,0,8.7,5.36,18,11.07a.84.84,0,0,0,.94,0l3.52-2.17a1,1,0,0,0,.5-.89V233.92a2.87,2.87,0,0,0-1.37-2.46l-26.4-16.28a1.06,1.06,0,0,0-1.11,0l-3.35,2-.12.07A.65.65,0,0,0,326.26,217.82Z" transform="translate(-6.95 -40.38)"/><path class="cls-39" d="M326.26,217.82v26.62a2.18,2.18,0,0,0,.94,1.8l.07,0,8.7,5.36,18,11.07a.84.84,0,0,0,.94,0,.89.89,0,0,0,.4-.73V236a2.73,2.73,0,0,0-1.29-2.31l-26.73-16.48a.66.66,0,0,0-.59-.05l-.12.07A.65.65,0,0,0,326.26,217.82Z" transform="translate(-6.95 -40.38)"/><polygon class="cls-13" points="324.49 188.04 324.49 189.89 333.11 200.01 341.76 200.67 341.76 198.83 324.49 188.04"/><polygon class="cls-13" points="333.11 201.09 324.49 190.97 324.49 200.41 341.76 211.2 341.76 201.75 333.11 201.09"/><path class="cls-28" d="M121.61,68.47V108a3.24,3.24,0,0,0,1.39,2.67l.12.08,22.74,13.82,26.65,16.42a1.23,1.23,0,0,0,1.4,0l5.22-3.22a1.51,1.51,0,0,0,.75-1.31V98.22a4.27,4.27,0,0,0-2-3.65l-49-30a1.63,1.63,0,0,0-1.65,0l-5,3a.76.76,0,0,0-.18.09A1,1,0,0,0,121.61,68.47Z" transform="translate(-6.95 -40.38)"/><path class="cls-29" d="M121.6,68.47V108a3.23,3.23,0,0,0,1.4,2.67l.11.08,49.4,30.24a1.22,1.22,0,0,0,1.39,0,1.29,1.29,0,0,0,.59-1.08V101.37a4.07,4.07,0,0,0-1.91-3.44L123.09,67.62a1,1,0,0,0-.88-.07.76.76,0,0,0-.18.09A1,1,0,0,0,121.6,68.47Z" transform="translate(-6.95 -40.38)"/><path class="cls-11" d="M137.41,66.67v7.48a.6.6,0,0,0,.27.51l0,0,16,9.89,5.05,3.11a.24.24,0,0,0,.27,0l1-.61a.29.29,0,0,0,.14-.25V79.58a.82.82,0,0,0-.39-.69l-21-13a.31.31,0,0,0-.31,0l-.94.57a.05.05,0,0,1,0,0A.23.23,0,0,0,137.41,66.67Z" transform="translate(-6.95 -40.38)"/><path class="cls-13" d="M137.41,66.67v7.48a.6.6,0,0,0,.27.51l0,0,21,13a.24.24,0,0,0,.27,0,.26.26,0,0,0,.11-.21V80.18a.78.78,0,0,0-.36-.65l-21.07-13a.18.18,0,0,0-.16,0,.05.05,0,0,1,0,0A.23.23,0,0,0,137.41,66.67Z" transform="translate(-6.95 -40.38)"/><path class="cls-11" d="M124.75,60.18l0,0,1-.57a.31.31,0,0,1,.31,0l21,13a.82.82,0,0,1,.39.69V81l-1,.65v-.32l-.12.07a.22.22,0,0,1-.26,0L141,78.24l-16-9.89,0,0a.62.62,0,0,1-.26-.51V60.34A.19.19,0,0,1,124.75,60.18Z" transform="translate(-6.95 -40.38)"/><path class="cls-28" d="M159.69,76.88l5.13-3h0a1.26,1.26,0,0,1,1.36,0l11.45,7.25a4.83,4.83,0,0,1,2.24,4.08v15.14L164.2,90.46V82.65l-.39.74s-1.88.55-2,.55-3,1.76-3,1.76V78.86Z" transform="translate(-6.95 -40.38)"/><path class="cls-29" d="M160.8,77l11.45,7.26a4.83,4.83,0,0,1,2.24,4.07v15.14l-15.67-9.93V78.09A1.29,1.29,0,0,1,160.8,77Z" transform="translate(-6.95 -40.38)"/><path class="cls-13" d="M124.75,60.18l0,0a.2.2,0,0,1,.17,0L146,73.2a.77.77,0,0,1,.37.65V81.6L124.67,68.18V60.34A.19.19,0,0,1,124.75,60.18Z" transform="translate(-6.95 -40.38)"/><polygon class="cls-40" points="271.41 112.85 307.8 135.26 307.8 135.28 312.92 138.43 307.8 141.24 307.8 274 196.68 341.92 144.16 309.58 271.41 112.85"/><path class="cls-13" d="M71.2,334.46l100.5,61.91,28.72-19.46a46.5,46.5,0,0,0,20.4-38.46v-.37A48.52,48.52,0,0,1,244,296.72a14.58,14.58,0,0,1,14.5-.54l.05,0a15.08,15.08,0,0,1,1.95,1.21,14.58,14.58,0,0,1,6,11.9v7.12A11.31,11.31,0,0,0,283.8,326h0a24.82,24.82,0,0,0,11.62-21V162.18a13.9,13.9,0,0,1,10.91-13.61c6,1.52,11.9,2.88,11.9,2.88L220.39,91.08l-4.13-2.65a15.41,15.41,0,0,0-1.49-.81,13.89,13.89,0,0,0-19.83,12.65V243.06a24.73,24.73,0,0,1-3.14,12.07L160,235.52a13.33,13.33,0,0,0-2.11-1.28l0,0a14.87,14.87,0,0,0-6.67-1.6,14.64,14.64,0,0,0-7.71,2.21,48.54,48.54,0,0,0-23.14,41.35v.38A46.46,46.46,0,0,1,99.92,315Z" transform="translate(-6.95 -40.38)"/><path class="cls-13" d="M179.23,268.54l-5.59-3.43A11.49,11.49,0,0,0,179.23,268.54Z" transform="translate(-6.95 -40.38)"/><path class="cls-41" d="M233.86,305.31l36.93,22.55.15-2.31a11.15,11.15,0,0,1-4.47-9v-7.13a14.6,14.6,0,0,0-6-11.9,14,14,0,0,0-1.95-1.2l-.05,0a14.61,14.61,0,0,0-14.5.54A69.68,69.68,0,0,0,233.86,305.31Z" transform="translate(-6.95 -40.38)"/><path class="cls-41" d="M295.44,163.75V162.2a14,14,0,0,1,21.32-11.84h0a13.44,13.44,0,0,1,6.33,11.39v19Z" transform="translate(-6.95 -40.38)"/><polygon class="cls-42" points="64.25 294.08 64.25 296.83 164.75 358.68 164.75 355.99 64.25 294.08"/><path class="cls-43" d="M191.8,255.13l66.65,41.05.06,0a13.92,13.92,0,0,1,1.47.88l.47.32a14.69,14.69,0,0,1,6,11.91v7.12A11.31,11.31,0,0,0,283.81,326h0a24.86,24.86,0,0,0,11.63-21V162.17a13.9,13.9,0,0,1,10.9-13.61c6,1.54,11.9,2.9,11.9,2.9L220.39,91.08l-4.13-2.65a14.38,14.38,0,0,0-1.48-.8,13.64,13.64,0,0,0-4.44-1.27,14,14,0,0,0-15.4,13.9v142.8A24.7,24.7,0,0,1,191.8,255.13Z" transform="translate(-6.95 -40.38)"/><path class="cls-43" d="M194.47,254.34l64,39.36a24.88,24.88,0,0,0,.85-3.1l-63.46-39A21.41,21.41,0,0,1,194.47,254.34Z" transform="translate(-6.95 -40.38)"/><path class="cls-44" d="M306.35,148.56a13.91,13.91,0,0,0-10.91,13.61V305a24.84,24.84,0,0,1-11.62,21h0a11.31,11.31,0,0,1-17.33-9.57V309.3a14.6,14.6,0,0,0-6-11.9,14,14,0,0,0-1.95-1.2l-.05,0a14.61,14.61,0,0,0-14.5.54,48.56,48.56,0,0,0-23.13,41.36v.37a46.5,46.5,0,0,1-20.4,38.46L171.7,396.37v2.69l29.75-20s9.9-8.32,12.69-12.25a50.8,50.8,0,0,0,7.47-17c1.09-5.6,1.1-12.36,1.39-16.22s2.29-11.38,5.31-17.5a43.22,43.22,0,0,1,16.63-17.87c3.1-1.95,9.51-3.49,14.26.26a14,14,0,0,1,5.38,10.69c.33,7.32-1.12,13.21,5.08,17.86,6.78,5.07,11.13,3,14.33,1.47a26.64,26.64,0,0,0,9.47-9.27,24.46,24.46,0,0,0,4-14.69l.22-141.8s-.7-9.46,8.87-12.33c0,0,8.31-1.86,12.7,4.76a11.4,11.4,0,0,1,1.86,6.21c.17,4-.13,18.09-.13,18.09l2.08,1.28V161.35a15.24,15.24,0,0,0-1.8-6.29C319.37,151.73,314.49,147.1,306.35,148.56Z" transform="translate(-6.95 -40.38)"/><path class="cls-43" d="M264.25,286.67h0Z" transform="translate(-6.95 -40.38)"/><path class="cls-27" d="M252.4,169.78l38,23.4a.84.84,0,0,0,1.28-.72v-23.2a2.33,2.33,0,0,0-1.11-2L252.14,143.6a.68.68,0,0,0-1,.57v23.29A2.73,2.73,0,0,0,252.4,169.78Z" transform="translate(-6.95 -40.38)"/><path class="cls-45" d="M198.3,143.62l92.86,57.24a.38.38,0,0,0,.57-.32V198a.69.69,0,0,0-.33-.59l-92.88-57.26a.38.38,0,0,0-.59.33v2.47A.82.82,0,0,0,198.3,143.62Z" transform="translate(-6.95 -40.38)"/><path class="cls-45" d="M198.3,136.58,248,167.09a.37.37,0,0,0,.57-.32v-2.55a.66.66,0,0,0-.33-.58L198.52,133.1a.39.39,0,0,0-.59.33v2.47A.79.79,0,0,0,198.3,136.58Z" transform="translate(-6.95 -40.38)"/><path class="cls-45" d="M198.3,129.12,248,159.63a.38.38,0,0,0,.57-.32v-2.55a.69.69,0,0,0-.33-.59l-49.69-30.53a.39.39,0,0,0-.59.33v2.47A.81.81,0,0,0,198.3,129.12Z" transform="translate(-6.95 -40.38)"/><path class="cls-45" d="M198.3,121.65,248,152.16a.37.37,0,0,0,.57-.32v-2.55a.66.66,0,0,0-.33-.58l-49.69-30.53a.38.38,0,0,0-.59.32V121A.79.79,0,0,0,198.3,121.65Z" transform="translate(-6.95 -40.38)"/><path class="cls-27" d="M198.3,114.19,248,144.7a.38.38,0,0,0,.57-.32v-2.55a.69.69,0,0,0-.33-.59l-49.69-30.53a.39.39,0,0,0-.59.33v2.47A.81.81,0,0,0,198.3,114.19Z" transform="translate(-6.95 -40.38)"/><path class="cls-45" d="M248.22,241.44l-21.53-13.22a.31.31,0,0,0-.48.26v2.57a.87.87,0,0,0,.42.74L248,244.9a.37.37,0,0,0,.57-.33V242A.71.71,0,0,0,248.22,241.44Z" transform="translate(-6.95 -40.38)"/><path class="cls-45" d="M197.93,211.24v2.47a.81.81,0,0,0,.37.68l24.34,15a.39.39,0,0,0,.6-.33v-2.46a.84.84,0,0,0-.41-.71l-24.31-14.94A.38.38,0,0,0,197.93,211.24Z" transform="translate(-6.95 -40.38)"/><path class="cls-45" d="M198.3,206.92l54.48,33.51a.38.38,0,0,0,.58-.32v-2.56A.71.71,0,0,0,253,237l-54.51-33.52a.38.38,0,0,0-.59.32v2.48A.79.79,0,0,0,198.3,206.92Z" transform="translate(-6.95 -40.38)"/><path class="cls-45" d="M198.3,199.46,248,230a.38.38,0,0,0,.57-.32V227.1a.69.69,0,0,0-.33-.59L198.52,196a.39.39,0,0,0-.59.33v2.47A.81.81,0,0,0,198.3,199.46Z" transform="translate(-6.95 -40.38)"/><path class="cls-45" d="M198.3,192,248,222.51a.38.38,0,0,0,.57-.32v-2.56a.67.67,0,0,0-.33-.58l-49.69-30.53a.38.38,0,0,0-.59.32v2.48A.79.79,0,0,0,198.3,192Z" transform="translate(-6.95 -40.38)"/><path class="cls-45" d="M198.3,243.14,248,273.65a.37.37,0,0,0,.57-.32v-2.55a.66.66,0,0,0-.33-.58l-49.69-30.54a.39.39,0,0,0-.59.33v2.48A.79.79,0,0,0,198.3,243.14Z" transform="translate(-6.95 -40.38)"/><path class="cls-19" d="M198.09,249.87l61.26,37.64c.3.2.4,0,.43-.12h0c0-.57.06-1.16.06-1.74v-1a.77.77,0,0,0-.24-.61l-.05,0-61.18-37.61a.36.36,0,0,0-.55.29c-.06.67-.14,1.34-.25,2A1.17,1.17,0,0,0,198.09,249.87Z" transform="translate(-6.95 -40.38)"/><path class="cls-38" d="M196.28,255.45l61.55,37.84a.61.61,0,0,0,.91-.33c.19-.6.35-1.2.49-1.82a.77.77,0,0,0-.36-.83l-61.66-37.89a.42.42,0,0,0-.62.23c-.19.58-.41,1.15-.65,1.71A.87.87,0,0,0,196.28,255.45Z" transform="translate(-6.95 -40.38)"/><path class="cls-45" d="M198.3,235.68,248,266.19a.38.38,0,0,0,.57-.32v-2.55a.69.69,0,0,0-.33-.59L198.52,232.2a.39.39,0,0,0-.59.33V235A.81.81,0,0,0,198.3,235.68Z" transform="translate(-6.95 -40.38)"/><path class="cls-45" d="M198.3,228.21,248,258.72a.37.37,0,0,0,.57-.31v-2.56a.67.67,0,0,0-.33-.58l-49.69-30.53a.38.38,0,0,0-.59.32v2.48A.79.79,0,0,0,198.3,228.21Z" transform="translate(-6.95 -40.38)"/><path class="cls-45" d="M248.22,247.81l-29.35-18a.26.26,0,0,0-.39.22v2.84a.54.54,0,0,0,.26.46l29.22,18a.37.37,0,0,0,.57-.32v-2.55A.69.69,0,0,0,248.22,247.81Z" transform="translate(-6.95 -40.38)"/><path class="cls-45" d="M197.93,217.6v2.48a.81.81,0,0,0,.37.67L215,231a.33.33,0,0,0,.49-.28V228a.57.57,0,0,0-.28-.48l-16.7-10.26A.38.38,0,0,0,197.93,217.6Z" transform="translate(-6.95 -40.38)"/><path class="cls-45" d="M256,249.73l34.41,21.2a.38.38,0,0,0,.57-.32v-2.55a.7.7,0,0,0-.32-.59L256.2,246.25a.38.38,0,0,0-.59.33v2.47A.8.8,0,0,0,256,249.73Z" transform="translate(-6.95 -40.38)"/><path class="cls-26" d="M256,242.26l34.41,21.2a.37.37,0,0,0,.57-.32v-2.55a.67.67,0,0,0-.32-.58L256.2,238.78a.39.39,0,0,0-.59.33v2.47A.78.78,0,0,0,256,242.26Z" transform="translate(-6.95 -40.38)"/><path class="cls-26" d="M256,235.68l34.41,21.2a.38.38,0,0,0,.57-.32v-12a.7.7,0,0,0-.32-.59L256.2,222.71a.38.38,0,0,0-.59.33v12A.79.79,0,0,0,256,235.68Z" transform="translate(-6.95 -40.38)"/><path class="cls-45" d="M256,278.48l29.7,18.32a.37.37,0,0,0,.57-.32v-2.55a.66.66,0,0,0-.33-.58L256.2,275a.39.39,0,0,0-.59.33v2.47A.78.78,0,0,0,256,278.48Z" transform="translate(-6.95 -40.38)"/><path class="cls-45" d="M256,271l34.41,21.2a.38.38,0,0,0,.57-.32v-2.55a.7.7,0,0,0-.32-.59L256.2,267.54a.39.39,0,0,0-.59.33v2.47A.79.79,0,0,0,256,271Z" transform="translate(-6.95 -40.38)"/><path class="cls-45" d="M256,263.55l34.41,21.2a.37.37,0,0,0,.57-.32v-2.55a.67.67,0,0,0-.32-.58L256.2,260.08a.38.38,0,0,0-.59.32v2.48A.78.78,0,0,0,256,263.55Z" transform="translate(-6.95 -40.38)"/><path class="cls-45" d="M256,256.09l34.41,21.2A.38.38,0,0,0,291,277v-2.55a.7.7,0,0,0-.32-.59L256.2,252.61a.39.39,0,0,0-.59.33v2.47A.79.79,0,0,0,256,256.09Z" transform="translate(-6.95 -40.38)"/><path class="cls-45" d="M223.32,167.15,291.16,209a.38.38,0,0,0,.57-.32v-2.55a.69.69,0,0,0-.33-.59l-67.87-41.88a.39.39,0,0,0-.59.33v2.47A.79.79,0,0,0,223.32,167.15Z" transform="translate(-6.95 -40.38)"/><path class="cls-45" d="M291.4,213.7l-31.07-19.16a.31.31,0,0,0-.48.27v2.53a.91.91,0,0,0,.43.78l30.88,19a.38.38,0,0,0,.57-.33v-2.55A.68.68,0,0,0,291.4,213.7Z" transform="translate(-6.95 -40.38)"/><path class="cls-45" d="M197.93,156.77v2.47a.81.81,0,0,0,.37.68l57.9,35.68a.44.44,0,0,0,.67-.37v-2.32a.89.89,0,0,0-.42-.76l-57.93-35.71A.39.39,0,0,0,197.93,156.77Z" transform="translate(-6.95 -40.38)"/><path class="cls-45" d="M198.3,168.07l92.86,57.24a.38.38,0,0,0,.57-.32v-2.55a.69.69,0,0,0-.33-.59l-92.88-57.26a.38.38,0,0,0-.59.33v2.47A.82.82,0,0,0,198.3,168.07Z" transform="translate(-6.95 -40.38)"/><path class="cls-45" d="M291.4,230l-46.78-28.84a.41.41,0,0,0-.62.35v2.4a.87.87,0,0,0,.41.73l46.75,28.82a.38.38,0,0,0,.57-.32v-2.55A.68.68,0,0,0,291.4,230Z" transform="translate(-6.95 -40.38)"/><path class="cls-45" d="M197.93,173.06v2.48a.79.79,0,0,0,.37.67l41.95,25.86a.5.5,0,0,0,.76-.42v-2.18a1,1,0,0,0-.45-.82l-42-25.91A.38.38,0,0,0,197.93,173.06Z" transform="translate(-6.95 -40.38)"/><path class="cls-45" d="M198.3,184.36l92.86,57.25a.38.38,0,0,0,.57-.32v-2.56a.68.68,0,0,0-.33-.58l-92.88-57.26a.38.38,0,0,0-.59.33v2.47A.79.79,0,0,0,198.3,184.36Z" transform="translate(-6.95 -40.38)"/><path class="cls-38" d="M260.86,297.72a14.63,14.63,0,0,1,5.62,11.59v4.23a.5.5,0,0,0,.24.44c1.72,1,11.92,7.29,13.77,8.43a.54.54,0,0,0,.56,0,24.68,24.68,0,0,0,5.45-4.92,22.48,22.48,0,0,0,1.62-2.19l0,0c3.07-5.1,3.18-12.17,2.48-12.6l-25.55-15.71a1.51,1.51,0,0,0-.73-.27c-.3,0-.62.1-.69.94,0,.05,0,.08,0,.12h0A24.49,24.49,0,0,1,260.86,297.72Z" transform="translate(-6.95 -40.38)"/><path class="cls-45" d="M266.48,315.8v.62a11.83,11.83,0,0,0,.12,1.7l8.9,5.35a3.54,3.54,0,0,0,3.12.24l.56-.24Z" transform="translate(-6.95 -40.38)"/><path class="cls-7" d="M170.3,292.41l46.75,28.9a1.6,1.6,0,0,0,2.37-.88,48.33,48.33,0,0,1,21.13-27.57,14.88,14.88,0,0,1,3.91-1.7.85.85,0,0,0,.19-1.54l-7.42-4.6-25.58-15.83-13-8.06a4.62,4.62,0,0,0-3.31-.67,14.4,14.4,0,0,0-5,2,48.48,48.48,0,0,0-21.06,27.32A2.37,2.37,0,0,0,170.3,292.41Z" transform="translate(-6.95 -40.38)"/><path class="cls-45" d="M148.17,238l22.65,14,14.33,8.84a.85.85,0,0,0,.87,0c.26-.18.54-.35.82-.52a10.58,10.58,0,0,1,1.44-.77.16.16,0,0,1,.06-.05c.19-.11.06-.24,0-.29l0,0-17.66-10.89-19.13-11.8a14,14,0,0,0-3.21,1.47Z" transform="translate(-6.95 -40.38)"/><path class="cls-45" d="M143,241.63a.45.45,0,0,0,.06.72L171,259.54l8.62,5.32a.87.87,0,0,0,1-.08c.34-.3.69-.59,1-.87a.87.87,0,0,0-.08-1.43l-10.76-6.63-25.17-15.52a.88.88,0,0,0-1,0C144.1,240.77,143.56,241.19,143,241.63Z" transform="translate(-6.95 -40.38)"/><path class="cls-45" d="M138.72,247.2l36.09,22.24a1,1,0,0,0,1.25-.19c.32-.36.64-.71,1-1.06a.7.7,0,0,0-.14-1.08l-3.26-2-33-20.33a1,1,0,0,0-1.28.14c-.29.28-.58.58-.86.87A.92.92,0,0,0,138.72,247.2Z" transform="translate(-6.95 -40.38)"/><path class="cls-45" d="M134.4,252l36.42,22.47a1,1,0,0,0,1.35-.3c.24-.35.48-.69.73-1a.8.8,0,0,0-.22-1.15l-36.32-22.39a1,1,0,0,0-1.31.24c-.3.38-.58.77-.86,1.17A.7.7,0,0,0,134.4,252Z" transform="translate(-6.95 -40.38)"/><path class="cls-45" d="M130.86,257.38l0,0,36.79,22.66a.9.9,0,0,0,1.26-.36c.14-.3.31-.62.47-.92l.22-.4a.62.62,0,0,0-.14-.81l0,0-37.11-22.86a.4.4,0,0,0-.55.12c-.38.62-.74,1.27-1.07,1.91,0,0,0,0,0,.05A.52.52,0,0,0,130.86,257.38Z" transform="translate(-6.95 -40.38)"/><path class="cls-45" d="M128.18,263.25l37.56,23.15a.32.32,0,0,0,.47-.17q.38-1.14.81-2.25a.41.41,0,0,0-.17-.5L129.43,260.4a.37.37,0,0,0-.54.17c-.31.74-.59,1.48-.87,2.23A.38.38,0,0,0,128.18,263.25Z" transform="translate(-6.95 -40.38)"/><path class="cls-45" d="M125.47,273.71a1.08,1.08,0,0,0,.51,1l90.91,56a.37.37,0,0,0,.57-.32v-2.55a.66.66,0,0,0-.33-.58l-90.66-55.83a.48.48,0,0,0-.73.33Q125.59,272.72,125.47,273.71Z" transform="translate(-6.95 -40.38)"/><path class="cls-45" d="M125.05,282.68a.83.83,0,0,0,.4.77l91.44,56.31a.31.31,0,0,0,.21.06.37.37,0,0,0,.36-.37V336.9a.76.76,0,0,0-.33-.59l-91.3-56.22a.45.45,0,0,0-.68.37C125.14,281.2,125.11,281.94,125.05,282.68Z" transform="translate(-6.95 -40.38)"/><path class="cls-45" d="M123.8,290.76a.9.9,0,0,0,.39,1l90.66,55.81a.49.49,0,0,0,.73-.26c.19-.67.37-1.35.53-2a.67.67,0,0,0-.3-.73L125,288.62a.5.5,0,0,0-.76.34C124.08,289.56,124,290.16,123.8,290.76Z" transform="translate(-6.95 -40.38)"/><path class="cls-45" d="M121.32,298.08a.94.94,0,0,0,.37,1.17L212,354.89a.48.48,0,0,0,.68-.19c.3-.59.57-1.19.84-1.79a.7.7,0,0,0-.28-.86l-90.49-55.73a.59.59,0,0,0-.85.29C121.74,297.1,121.53,297.59,121.32,298.08Z" transform="translate(-6.95 -40.38)"/><path class="cls-45" d="M117.57,305a.59.59,0,0,0,.18.84l90.32,55.62a.52.52,0,0,0,.68-.14c.39-.55.78-1.11,1.15-1.67a.54.54,0,0,0-.17-.76L119.42,303.3a.65.65,0,0,0-.9.23C118.21,304,117.89,304.54,117.57,305Z" transform="translate(-6.95 -40.38)"/><path class="cls-45" d="M112.83,311.14a.55.55,0,0,0,.11.85l90,55.45a.56.56,0,0,0,.66-.07c.49-.49,1-1,1.45-1.49A.55.55,0,0,0,205,365l-90-55.4a.78.78,0,0,0-1,.16C113.62,310.25,113.23,310.7,112.83,311.14Z" transform="translate(-6.95 -40.38)"/><path class="cls-45" d="M144.69,339.6a.61.61,0,0,0,.05,1l52,32a.6.6,0,0,0,.63,0c.62-.44,1.23-.88,1.83-1.34a.46.46,0,0,0,0-.76l-52.05-32.08a.87.87,0,0,0-1,.08C145.61,338.88,145.16,339.25,144.69,339.6Z" transform="translate(-6.95 -40.38)"/><path class="cls-46" d="M143.1,338.74l-11.85,7.05L95,349.13l-14.54-8.94,32.19-3.83L143,338A.38.38,0,0,1,143.1,338.74Z" transform="translate(-6.95 -40.38)"/><path class="cls-19" d="M133.48,319.14l-2.23,2.27-8.47,8.6,20,8.68a.52.52,0,0,0,.72-.39.38.38,0,0,0,0-.41Z" transform="translate(-6.95 -40.38)"/><path class="cls-20" d="M133.48,319.14l-2.23,2.27,1.61,4.36,10.66,12.53a.38.38,0,0,0,0-.41Z" transform="translate(-6.95 -40.38)"/><path class="cls-21" d="M20.18,220l-3.06,3.26-7.87,8.36L120.8,328.67h0a4.5,4.5,0,0,0,.85.73,5.71,5.71,0,0,0,3,1,8.86,8.86,0,0,0,6.44-2.47,10,10,0,0,0,1.77-2.18h0a7.22,7.22,0,0,0,.72-6.47,5.05,5.05,0,0,0-1-1.5l-.23-.23-.32-.27a.52.52,0,0,0-.11-.1l-.1-.07Z" transform="translate(-6.95 -40.38)"/><path class="cls-22" d="M20.18,220l-3.06,3.26,3.24,4.82,112.46,97.72a0,0,0,0,0,0,0h0a7.22,7.22,0,0,0,.72-6.47,5.05,5.05,0,0,0-1-1.5l-.23-.23-.32-.27a.52.52,0,0,0-.11-.1l-.1-.07Z" transform="translate(-6.95 -40.38)"/><path class="cls-23" d="M9.93,220.72c-3.25,3-3.95,7.54-1.55,10.15h0a5,5,0,0,0,.86.74,5.82,5.82,0,0,0,3,1,8.81,8.81,0,0,0,6.43-2.47c2.7-2.49,3.64-6,2.5-8.66a4.86,4.86,0,0,0-1-1.5l-.22-.23-.32-.27-.12-.1C17,217.47,12.9,218,9.93,220.72Z" transform="translate(-6.95 -40.38)"/><path class="cls-24" d="M39.14,236.5l-9.49-8.23a.24.24,0,0,1,.1.1,4.92,4.92,0,0,1,.88,1.4,7.28,7.28,0,0,1-.78,6.54,8.1,8.1,0,0,1-1.72,2.14,8.9,8.9,0,0,1-6.45,2.45,5.74,5.74,0,0,1-2.27-.59,2.19,2.19,0,0,1-.58-.33l9,7.9s.39.33.6.49a5.87,5.87,0,0,0,2.94,1,8.77,8.77,0,0,0,6.44-2.48,8.27,8.27,0,0,0,1.75-2.15,7.23,7.23,0,0,0,.76-6.5,5,5,0,0,0-1-1.5C39.29,236.65,39.2,236.58,39.14,236.5Z" transform="translate(-6.95 -40.38)"/><path class="cls-13" d="M29.42,228.05a.84.84,0,0,1,.22.19c-.05-.05-.08-.07-.09-.1Z" transform="translate(-6.95 -40.38)"/><path class="cls-25" d="M20.06,219.91a4.32,4.32,0,0,1,.94,1.51,7,7,0,0,1-.73,6.47,10.07,10.07,0,0,1-1.77,2.19,8.75,8.75,0,0,1-6.41,2.46,5.93,5.93,0,0,1-3-1l9.11,8a3.38,3.38,0,0,0,.61.49,2.19,2.19,0,0,0,.58.33,5.29,5.29,0,0,0,2.37.69,8.94,8.94,0,0,0,6.44-2.48A10.72,10.72,0,0,0,30,236.41a7.32,7.32,0,0,0,.74-6.54,4.79,4.79,0,0,0-1-1.5.24.24,0,0,0-.1-.1v0c-.05-.05-.08-.07-.09-.1l-.13-.09Z" transform="translate(-6.95 -40.38)"/><path class="cls-2" d="M285.61,407.09l30.29,18.39a6.91,6.91,0,0,0,7.19,0l60.55-37a2.31,2.31,0,0,0,0-4l-31.55-19.15a6,6,0,0,0-6.2,0l-60.29,36.83A2.85,2.85,0,0,0,285.61,407.09Z" transform="translate(-6.95 -40.38)"/><path class="cls-11" d="M284.23,392.27v4.65h0a2.82,2.82,0,0,0,1.35,2.63l30.3,18.39a6.93,6.93,0,0,0,7.2,0l60.54-37a2.31,2.31,0,0,0,1.06-1.55h.06v-5.26a2.33,2.33,0,0,0-1.13-2L352.08,353a6,6,0,0,0-6.2,0l-60.29,36.84A2.81,2.81,0,0,0,284.23,392.27Z" transform="translate(-6.95 -40.38)"/><path class="cls-13" d="M284.23,392.27a2.85,2.85,0,0,0,1.37,2.44l30.3,18.4a7,7,0,0,0,7.2,0l60.54-37a2.28,2.28,0,0,0,1.12-2,2.33,2.33,0,0,0-1.13-2L352.08,353a6,6,0,0,0-6.2,0l-60.29,36.84A2.81,2.81,0,0,0,284.23,392.27Z" transform="translate(-6.95 -40.38)"/><path class="cls-28" d="M289.89,391.24a2.51,2.51,0,0,0,1.22,2.16L318,409.73a6.17,6.17,0,0,0,6.39,0l53.73-32.83a2.05,2.05,0,0,0,0-3.51l-28-17a5.3,5.3,0,0,0-5.5,0l-53.5,32.69A2.5,2.5,0,0,0,289.89,391.24Z" transform="translate(-6.95 -40.38)"/><g class="cls-1"><polygon class="cls-9" points="305.61 349.24 316.72 355.99 319.51 354.29 308.39 347.53 305.61 349.24"/><polygon class="cls-9" points="306.21 341.63 328.44 355.14 331.23 353.44 309 339.93 306.21 341.63"/><polygon class="cls-9" points="313.56 337.12 335.78 350.63 338.57 348.93 316.34 335.42 313.56 337.12"/><path class="cls-9" d="M337.39,375.59c0,2.68,4.29,4.86,9.57,4.86s9.58-2.18,9.58-4.86-4.29-4.87-9.58-4.87S337.39,372.9,337.39,375.59Z" transform="translate(-6.95 -40.38)"/></g></g></g></svg>